<svg width="55" height="54" viewBox="0 0 55 54" fill="none" xmlns="http://www.w3.org/2000/svg">
<path d="M54.4817 38.3366C54.0247 37.0391 53.369 36.2404 52.4146 35.8222C52.3369 35.7889 51.545 35.4749 51.2964 35.4749H45.6578V29.8364C45.6578 28.6222 44.3825 27.2275 43.2851 26.8386C42.653 26.6135 41.3069 26.5968 40.9096 26.5968C39.9317 26.5968 39.1051 26.676 38.6981 26.8066C37.5868 27.165 36.2435 28.5972 36.2435 29.8364V35.4749H30.6049C29.3907 35.4749 27.996 36.7502 27.6071 37.8476C27.3028 38.7034 27.2834 41.5331 27.5751 42.436C27.9349 43.5474 29.3657 44.8907 30.6049 44.8907H36.2435V50.5293C36.2435 50.7793 36.5574 51.5711 36.5907 51.6475C37.0089 52.6019 37.8077 53.259 39.1051 53.7146L39.1426 53.7285H42.7586L42.7961 53.7146C44.0936 53.2576 44.8924 52.6005 45.3105 51.6475C45.3438 51.5697 45.6578 50.7779 45.6578 50.5293V44.8907H51.2964C51.5464 44.8907 52.3382 44.5767 52.416 44.5434C53.3704 44.1252 54.0275 43.3265 54.4831 42.029L54.497 41.9915V38.3755L54.4831 38.338L54.4817 38.3366ZM44.302 42.1304C43.4282 42.229 42.9948 42.6611 42.8975 43.5348C42.7725 44.6517 42.8267 45.8867 42.8795 47.08C42.9295 48.2163 42.9809 49.3915 42.8781 50.457C42.7503 50.8168 42.4099 51.0127 41.8084 51.0724C41.6459 51.0891 41.3181 51.1155 40.9388 51.1155C39.8747 51.1155 39.1899 50.9085 39.0482 50.5459L39.0023 43.5474V43.5348C38.9023 42.6611 38.4703 42.2276 37.5965 42.1304C37.1367 42.079 36.6241 42.054 36.0309 42.054C35.3822 42.054 34.7057 42.0832 34.0514 42.1123C33.3985 42.1415 32.7233 42.1707 32.0774 42.1707C31.5495 42.1707 31.0911 42.1512 30.6743 42.111C30.3145 41.9845 30.1187 41.6428 30.0589 41.0413C29.9353 39.8077 30.052 38.488 30.5854 38.2811L37.584 38.2352H37.5965C38.4703 38.1352 38.9037 37.7032 39.0009 36.8294C39.1274 35.7042 39.0718 34.4539 39.0176 33.2467C38.969 32.1465 38.9176 31.0088 39.0065 29.9794C39.0371 29.8294 39.1385 29.4307 39.9192 29.3168C40.0289 29.3001 40.429 29.2487 40.9527 29.2487C42.0043 29.2487 42.7086 29.4613 42.8503 29.8183L42.8961 36.8169V36.8294C42.9962 37.7032 43.4282 38.1366 44.302 38.2338C44.7618 38.2852 45.2744 38.3102 45.8675 38.3102C46.5163 38.3102 47.1928 38.2797 47.8471 38.2519C48.5 38.2227 49.1751 38.1935 49.8211 38.1935C50.3476 38.1935 50.8074 38.213 51.2241 38.2533C51.5839 38.3811 51.7798 38.7214 51.8395 39.3229C51.9632 40.5565 51.8465 41.8762 51.313 42.0832L44.3145 42.129H44.302V42.1304Z" fill="#6BB52B"/>
<path d="M22.5409 44.4225L22.5159 44.417H3.45805C3.44972 44.385 3.43999 44.3378 3.43166 44.2669C3.23995 42.6347 3.31358 39.3979 3.43444 37.1225C3.68449 32.416 6.50448 29.5613 11.1721 29.2932C12.5695 29.2126 14.0879 29.1737 15.8174 29.1737C17.7456 29.1737 19.7237 29.2223 21.6366 29.2696C23.5522 29.3168 25.5346 29.3654 27.4683 29.3654C28.8088 29.3654 30.009 29.3418 31.1343 29.2946H31.1509L31.1676 29.2904C32.0039 29.1334 32.3526 28.4903 32.3275 27.9207C32.3025 27.3609 31.89 26.7205 31.0412 26.6371H31.0245H31.0078C29.8368 26.6927 28.5865 26.7191 27.1849 26.7191C25.1803 26.7191 23.1202 26.6635 21.1282 26.6093C19.1333 26.5552 17.0718 26.4996 15.0631 26.4996C13.2933 26.4996 11.7374 26.5427 10.3066 26.633C7.93531 26.7816 5.64459 27.8235 3.85535 29.5655C2.05778 31.3172 0.967291 33.5871 0.785311 35.9556C0.658898 37.6115 0.714464 39.3674 0.768642 41.0663C0.817262 42.618 0.868661 44.2225 0.779755 45.7436C0.757528 46.391 1.32014 47.0133 1.98416 47.0758H1.99527H22.1978H22.2117C22.9146 46.9897 23.3897 46.484 23.423 45.7825C23.4536 45.1213 23.0758 44.5364 22.5437 44.4211L22.5409 44.4225Z" fill="#6BB52B"/>
<path d="M21.0374 22.6586C25.1118 22.6586 28.7513 20.5721 30.7712 17.0783C32.841 13.4971 32.8633 9.25597 30.8309 5.73168C28.7611 2.14209 25.0423 1.14441e-05 20.8859 1.14441e-05C20.5275 1.14441e-05 20.1608 0.0166813 19.7982 0.048632C16.26 0.362582 13.1608 2.34074 11.2966 5.47885C9.40593 8.66141 9.14199 12.5497 10.5909 15.8781C12.4107 20.0609 16.4142 22.6586 21.0374 22.6586ZM13.1039 14.8557C11.9189 12.1927 12.162 9.13373 13.7526 6.67353C15.346 4.20777 18.0368 2.72693 20.9512 2.71165H20.9971C24.1018 2.71165 26.8829 4.32724 28.4388 7.03471C30.0058 9.76302 29.9974 13.0109 28.4152 15.7225C26.869 18.3744 24.1018 19.9567 21.0151 19.9567C17.5353 19.9567 14.5041 18.0021 13.1053 14.8557H13.1039Z" fill="#6BB52B"/>
</svg>
