<svg width="70" height="64" viewBox="0 0 70 64" fill="none" xmlns="http://www.w3.org/2000/svg">
<path d="M69.6017 36.6574V37.6433C69.4998 37.9879 69.4653 38.3565 69.353 38.6997C69.0323 39.6871 68.3371 40.5981 67.4965 41.1944C59.245 46.142 51.2588 51.5735 42.9729 56.4597C39.3484 58.5978 35.4751 59.9089 31.2318 60.1471L11.7411 60.1441C11.6812 60.1322 11.5403 60.1861 11.5403 60.2341V63.018C11.5403 63.0555 11.3096 63.4256 11.2527 63.484C11.0908 63.6488 10.8706 63.7042 10.6698 63.8001H0.870546C0.425534 63.6263 0.173809 63.3731 0 62.9296V41.2364C0.196285 40.7974 0.44651 40.4707 0.954454 40.4213L10.6443 40.4243C10.9575 40.4048 11.5433 40.9217 11.5433 41.2079V44.0788L13.3818 42.8141C15.9305 41.3053 19.1715 40.5531 22.1262 40.4228C27.7271 40.1755 33.5063 40.6161 39.1251 40.4228C41.6468 40.7105 42.8545 42.059 43.7281 44.2885C43.7505 44.347 43.6966 44.3904 43.8165 44.3664L62.1609 32.8396C64.9073 31.2393 68.4644 32.6838 69.3859 35.682L69.6017 36.6559V36.6574ZM11.5418 47.3002V58.0015H30.8272C34.8158 57.8097 38.4658 56.617 41.8716 54.6032C50.0946 49.7441 58.0239 44.3575 66.2214 39.4548C68.9874 37.4261 66.557 33.1887 63.3835 34.6436L43.7176 46.9781C43.0898 49.0009 41.3172 50.5202 39.1835 50.6955L27.0588 50.6925C25.8032 50.5202 25.7957 48.8061 27.0064 48.5514C31.1494 48.4839 35.3163 48.6607 39.4443 48.4615C42.7317 47.5609 42.3136 42.958 38.9483 42.5729C33.5512 42.7317 28.0313 42.3586 22.6492 42.5699C18.5646 42.7302 14.1025 43.9094 11.5448 47.2987L11.5418 47.3002ZM9.3962 42.5729H2.23255C2.17561 42.6104 2.14565 42.7812 2.14565 42.8336V61.5976H9.3962V42.5729Z" fill="#6BB52B"/>
<path d="M51.2154 0C52.931 0.208272 54.3275 1.46989 54.5208 3.21997L54.5238 23.5797C54.32 25.4616 52.8726 26.7217 51.0116 26.8536C48.7611 27.0139 46.4117 26.7906 44.1656 26.7936C43.1632 26.7936 42.1593 26.8551 41.1554 26.8566C38.785 26.8596 36.4116 26.87 34.0442 26.8281L25.55 36.1928C25.0601 36.5629 24.3633 36.5225 23.9827 36.0205C23.9288 35.9501 23.782 35.7059 23.782 35.6414V26.8835C23.782 26.7682 23.5452 26.8566 23.4658 26.8581C21.954 26.8805 20.1934 26.948 18.704 26.8581C16.8611 26.7457 15.4271 25.6519 15.0975 23.7939L15.0885 3.11059C15.3148 1.4594 16.7352 0.152832 18.3879 0H51.2169L51.2154 0ZM25.9261 32.4814C26.1029 32.348 26.2677 32.1802 26.4206 32.0184C28.4883 29.8068 30.4901 27.2117 32.6253 25.1155C32.9579 24.7888 33.1317 24.6854 33.6097 24.6495H51.1285C51.8387 24.5611 52.3676 23.9482 52.3781 23.2335C52.3227 16.5524 52.4755 9.84571 52.3017 3.17951C52.1174 2.63861 51.6095 2.19809 51.0161 2.20408L18.4164 2.20708C17.8365 2.27001 17.2911 2.88733 17.2267 3.45371C17.2761 10.1933 17.1278 16.9539 17.3016 23.68C17.4394 24.1355 17.8979 24.5686 18.3729 24.6375L24.9642 24.6585C25.3283 24.6615 25.9261 25.2159 25.9261 25.553V32.4844V32.4814Z" fill="#6BB52B"/>
<path d="M34.1505 5.41206C40.8572 4.88014 45.2758 12.4873 41.3666 18.0222C38.1002 22.6492 31.2482 22.5757 28.1062 17.8589C24.7319 12.793 28.1211 5.88854 34.1505 5.41056V5.41206ZM34.0352 7.61465C31.3351 7.88884 29.116 10.3506 28.9437 13.0207C28.6171 18.0822 34.5401 21.2017 38.4823 17.9773C43.0253 14.2629 39.9821 7.00781 34.0352 7.61315V7.61465Z" fill="#6BB52B"/>
<path d="M37.0484 10.6278C38.0103 10.4615 38.6651 11.3051 38.2561 12.1831C37.0289 13.3189 35.8212 14.9131 34.5416 15.9515C34.1131 16.2991 33.6441 16.368 33.1572 16.0564C32.9144 15.902 31.4835 14.4456 31.3531 14.2059C30.7957 13.184 31.9944 12.1127 32.9729 12.8184C33.1152 12.9218 33.728 13.629 33.785 13.629L36.482 10.932C36.6438 10.8031 36.8401 10.6638 37.0469 10.6278H37.0484Z" fill="#6BB52B"/>
</svg>
