<svg width="51" height="55" viewBox="0 0 51 55" fill="none" xmlns="http://www.w3.org/2000/svg">
<path d="M0.423787 54.7343C0.344943 54.6719 0.0657035 54.3926 0 54.3105V0.427073C0.0624183 0.344943 0.341658 0.0657035 0.423787 0.00328517H10.5323C10.7688 0.00328517 10.9528 0.535483 10.9528 1.2188C10.9528 1.90212 10.7688 2.43431 10.5323 2.43431H2.42774V52.3065H37.9175V46.863L37.7992 46.8926C36.8925 47.1324 35.9464 47.2605 35.0331 47.3853C34.5173 47.4543 33.9884 47.5266 33.4693 47.6186C33.177 47.6712 32.9207 47.9668 32.786 48.1278C32.763 48.1574 32.7433 48.1804 32.7269 48.1968H7.58875C7.22738 48.1968 7.03684 47.5857 7.03684 46.9813C7.03684 46.3768 7.22738 45.7658 7.58875 45.7658H25.0265L22.6743 43.972C22.28 43.8144 21.4719 42.7565 20.8838 41.9878C20.2662 41.1796 20.1217 41.0055 20.01 41.0055H7.58875C7.22738 41.0055 7.03684 40.3945 7.03684 39.79C7.03684 39.1856 7.22738 38.5745 7.58875 38.5745H18.6532L17.6315 33.811H7.58547C7.2241 33.811 7.03356 33.2 7.03356 32.5955C7.03356 31.991 7.2241 31.38 7.58547 31.38H17.6315L18.6532 26.6165H7.58875C7.22738 26.6165 7.03684 26.0054 7.03684 25.401C7.03684 24.7965 7.22738 24.1854 7.58875 24.1854H20.01C20.148 24.1854 20.4042 23.9029 21.3569 22.7761C22.0271 21.9877 22.7827 21.0908 23.1999 20.759C25.8477 18.6532 29.0048 17.5855 32.5758 17.5855C34.2479 17.5855 36.0055 17.8254 37.7959 18.2951L37.9142 18.3247V14.8424H25.9167C25.8379 14.78 25.5554 14.5008 25.4929 14.4186V2.43103H14.123C13.7616 2.43103 13.5711 1.81999 13.5711 1.21551C13.5711 0.611042 13.7616 0 14.123 0H28.1408L40.1744 12.0467L40.3386 19.6716L40.3846 19.6979C44.041 21.8563 46.5082 25.3845 47.3295 29.629C48.1836 34.0443 47.1028 38.6205 44.3663 42.1882L44.3433 42.2178V42.2539C44.3696 42.5791 45.2894 43.4431 46.9156 44.9445C48.5877 46.4918 50.6705 48.4136 50.8052 49.1363C50.9202 49.7539 50.8479 50.2467 50.5917 50.5555C50.3978 50.7921 50.0956 50.9169 49.7244 50.9169C49.4057 50.9169 49.0378 50.8249 48.6567 50.6508C47.934 50.319 46.7086 48.89 45.5194 47.5069C44.3038 46.091 43.154 44.7539 42.4444 44.432L42.4247 44.4221H42.3919C42.3722 44.4221 40.3452 45.1021 40.3452 45.3485V54.3138C40.2828 54.3926 40.0036 54.6751 39.9214 54.7376H0.423787V54.7343ZM32.4871 20.2104C26.6395 20.2662 20.3615 24.1822 20.4042 32.6448C20.4436 41.1238 26.7282 44.9872 32.5528 44.9872H32.7072C38.5548 44.928 44.8328 41.0121 44.7901 32.5495C44.7473 24.0705 38.4628 20.2071 32.6415 20.2071H32.4871V20.2104ZM27.924 12.4245H36.4129L27.924 3.93564V12.4245Z" fill="#83B52B"/>
<path d="M37.7236 26.774C39.5568 26.2024 40.2598 27.3259 39.6159 28.9981L31.6165 38.3214C31.0186 38.6171 30.2564 38.5908 29.6553 38.3115C29.4122 38.1998 25.6802 35.1282 25.5619 34.8917C24.9345 33.6203 25.3385 32.4574 26.876 32.5691C27.9732 32.6479 29.5633 34.4646 30.4667 35.207C31.7019 34.1065 36.8104 27.0565 37.7204 26.774H37.7236Z" fill="#83B52B"/>
<path d="M30.6704 38.4398C30.332 38.4398 29.9969 38.3675 29.698 38.2262C29.4056 38.0882 25.7755 35.056 25.6474 34.8458C25.3254 34.192 25.286 33.5777 25.5422 33.167C25.7492 32.832 26.1434 32.6546 26.6789 32.6546C26.7413 32.6546 26.8038 32.6546 26.8695 32.6611C27.6579 32.717 28.7387 33.7354 29.6093 34.5534C29.9017 34.8293 30.1776 35.0889 30.4076 35.2794L30.47 35.3287L30.5291 35.2761C31.0548 34.8064 32.2736 33.2787 33.5581 31.6592C35.2007 29.5928 37.2473 27.0205 37.7467 26.8628C38.0588 26.7642 38.3446 26.715 38.5942 26.715C39.0279 26.715 39.3597 26.8628 39.5502 27.142C39.8229 27.5395 39.813 28.2032 39.5239 28.962L31.5541 38.2426C31.2913 38.3708 30.9858 38.4365 30.6638 38.4365L30.6704 38.4398Z" fill="#83B52B"/>
</svg>
