<svg width="46" height="61" viewBox="0 0 46 61" fill="none" xmlns="http://www.w3.org/2000/svg">
<path d="M11.5405 4.12355C11.7773 2.0694 13.5385 0.207894 15.5439 0H37.3813C39.4774 0.255576 41.135 1.96641 41.3829 4.12545V18.1783C45.1642 18.2508 46.6258 22.8207 43.6935 25.241C45.8636 26.8526 46.0005 29.8585 43.9636 31.6743C46.2113 33.2821 46.1947 36.2994 44.2319 38.1743C45.4048 38.7045 46.0652 40.32 45.9949 41.5998C45.8451 44.3291 43.3531 45.1473 41.4051 46.3108C41.2219 48.5671 41.9046 50.8749 40.4301 52.7879C38.6819 55.0576 36.4304 54.472 33.9403 54.5579C33.4075 56.3068 32.5954 58.1836 31.4132 59.574C30.9248 60.15 30.3199 60.871 29.517 60.8366C23.6062 60.4266 17.0332 61.3669 11.2001 60.829C9.90512 60.7088 8.68227 60.1157 8.03662 58.916C7.95152 58.7577 7.60372 58.0539 7.60372 57.9643V39.5742H3.19518C2.00563 39.5742 0.19078 37.6975 0.15378 36.4158C0.46273 30.6043 -0.295769 24.2702 0.13713 18.5197C0.24998 17.0282 1.65043 14.9588 3.19518 14.9588H11.5387V4.11973L11.5405 4.12355ZM39.3497 7.69017V3.98432C39.3497 3.36063 37.953 2.00265 37.2481 2.0961L15.3367 2.16286C14.6633 2.31544 13.5774 3.44265 13.5774 4.12545V7.69208H39.3516L39.3497 7.69017ZM39.3497 9.64704H13.5755V14.9607H25.5136V12.6529C25.5136 12.6091 26.0316 12.0884 26.1537 12.0502C27.0398 11.7756 27.543 12.5251 27.5467 13.3548C27.0787 22.3381 28.1757 32.0061 27.5541 40.9093C27.5005 41.6761 27.4542 42.479 26.5274 42.521C26.1814 42.5362 25.5117 42.2673 25.5117 41.882V39.5742H13.5737V44.8879H32.4289C32.4363 43.5166 33.1282 42.706 33.9237 41.7428C32.2605 40.6538 31.7351 38.5691 32.6046 36.7476C32.8951 36.1411 33.3576 35.8684 33.6517 35.3095C31.9701 34.2872 31.5261 31.8707 32.4548 30.1599C32.7267 29.6602 33.13 29.3607 33.3779 28.8782C31.2652 27.5126 31.169 24.1786 33.1189 22.5937L39.3479 18.8058V9.64513L39.3497 9.64704ZM7.87753 17.0607H3.33393C2.79558 17.0607 2.04448 18.308 2.04448 18.8096V22.9351C5.03038 22.6375 7.39098 20.0665 7.87753 17.0607ZM25.5136 17.0607H9.91252C9.39822 21.2529 6.10708 24.6211 2.03893 25.1113L2.04448 29.5057C6.14408 29.8681 9.38157 33.3222 9.91067 37.4781H25.5117V17.0587L25.5136 17.0607ZM41.0758 20.3088L34.2622 24.3312C33.0727 25.8742 34.1161 27.8711 36.0974 27.3428C37.4498 26.269 42.2542 24.2797 42.9924 22.9828C43.8008 21.558 42.6298 19.9788 41.0758 20.3088ZM41.4883 26.7363C41.1609 26.7745 40.6577 27.0872 40.3432 27.2456C38.4284 28.2221 36.5858 29.622 34.6692 30.6253C33.1041 32.0462 34.3011 34.3273 36.3694 33.7761L42.8814 29.8623C44.1079 28.7142 42.9868 26.5589 41.4883 26.7363ZM7.87753 37.4781C7.37803 34.4627 5.03963 31.947 2.04448 31.6037V35.7291C2.04448 36.2727 2.78263 37.4781 3.33393 37.4781H7.87753ZM43.2366 33.7513C42.6927 33.1333 41.9508 33.0303 41.209 33.3126C40.2266 33.6864 35.992 36.2479 35.1003 36.9441C33.2706 38.3726 34.4935 40.7892 36.6395 40.2094C38.4118 38.838 41.3643 37.8157 43.0016 36.4196C43.7878 35.7501 43.934 34.5466 43.2347 33.7494L43.2366 33.7513ZM11.5405 39.5761H9.50552V57.127C9.50552 57.9433 10.4102 58.7386 11.2001 58.7348L29.2395 58.731C30.0516 58.5708 31.7 55.4695 31.7518 54.5388H15.2701C13.7143 54.5388 11.5405 51.9945 11.5405 50.4133V39.5742V39.5761ZM41.7547 39.6086L35.1428 43.5605C33.5389 44.9146 34.9245 47.2644 36.9133 46.6445L43.4863 42.6526C44.6833 41.2507 43.5177 39.229 41.7528 39.6067L41.7547 39.6086ZM39.3497 47.5486C37.8346 48.7139 35.8754 49.391 34.1494 48.2238C33.87 48.0349 32.9913 46.9878 32.9062 46.9878H13.5755V50.4133C13.5755 51.1934 14.9519 52.5838 15.8085 52.4465L37.2481 52.4408C37.9992 52.5247 39.3497 51.222 39.3497 50.5526V47.5448V47.5486Z" fill="#83B52B"/>
<path d="M18.0685 20.8144C18.2947 21.0794 21.8306 21.1973 21.9604 22.5975C22.1688 24.8389 19.4333 23.1776 18.3773 22.9901C17.1068 22.7638 14.4598 22.8334 14.1845 24.4792C13.8521 26.4749 17.5808 26.4053 18.7725 26.7128C22.511 27.674 23.2623 32.0252 19.6418 33.6632C19.3193 33.8102 18.1137 34.1061 18.0705 34.1738C17.8935 34.4503 18.3261 36.0729 16.9829 35.9975C15.6398 35.922 16.0429 34.3672 15.8758 34.168C15.8227 34.1061 14.5621 33.9204 14.273 33.8315C13.3467 33.5414 11.6653 33.1063 12.0586 31.8802C12.5266 30.424 14.3536 31.71 15.3349 31.9363C16.3163 32.1625 17.3173 32.2515 18.3124 31.9305C20.4894 31.2285 20.3655 29.31 18.1668 28.726C16.6486 28.3218 15.4805 28.6467 13.9682 27.7513C11.4155 26.239 11.4273 22.963 14.0626 21.5145C14.4342 21.3095 15.7735 20.915 15.8266 20.8376C16.0842 20.4644 15.6653 19.0294 16.9672 19.0004C18.3792 18.9695 17.9171 20.6423 18.0665 20.8144H18.0685Z" fill="#83B52B"/>
<path d="M28.7903 3.50988C29.1982 4.18709 28.9867 5.65482 28.3657 5.87626C27.8991 6.04106 25.3443 6.03076 24.829 5.90716C23.7598 5.64709 23.7246 3.47125 24.725 3.12621C25.2436 2.94854 27.4358 2.98201 28.0249 3.08243C28.2129 3.11333 28.6762 3.32191 28.7903 3.51245V3.50988Z" fill="#83B52B"/>
<path d="M23.7694 49.085C24.3515 48.9717 28.6233 48.9717 29.2015 49.085C30.2983 49.3016 30.2714 50.7483 29.0824 50.9124C28.2277 51.0292 24.7433 51.0292 23.8885 50.9124C22.7264 50.7534 22.7226 49.2898 23.7694 49.085Z" fill="#83B52B"/>
</svg>
