<svg width="11" height="24" viewBox="0 0 11 24" fill="none" xmlns="http://www.w3.org/2000/svg">
<path fill-rule="evenodd" clip-rule="evenodd" d="M2.28621 12.0248V22.8212C2.28621 22.9782 2.40905 23.101 2.56602 23.101H6.57201C6.72897 23.101 6.85181 22.9782 6.85181 22.8212V11.8474H9.75905C9.90237 11.8474 10.0252 11.7382 10.0389 11.588L10.3187 8.28498C10.3323 8.12119 10.2026 7.97788 10.0389 7.97788H6.85181V5.63024C6.85181 5.07746 7.2954 4.63387 7.84819 4.63387H10.0866C10.2436 4.63387 10.3664 4.51102 10.3664 4.35406V1.05782C10.3664 0.900856 10.2436 0.778015 10.0866 0.778015H6.29902C4.08106 0.778015 2.27939 2.57969 2.27939 4.79765V7.9847H0.279805C0.122841 7.9847 0 8.10754 0 8.26451V11.5676C0 11.7245 0.122841 11.8474 0.279805 11.8474H2.28621V12.0248Z" fill="white"/>
</svg>
