<svg width="30" height="30" viewBox="0 0 30 30" fill="none" xmlns="http://www.w3.org/2000/svg">
<path d="M29.9647 14.5179C29.9622 14.3217 29.9633 14.1267 29.9725 13.9347C29.8811 13.6191 29.8909 13.249 29.8471 12.9184C28.9751 6.34393 23.6204 1.00763 17.0541 0.125405C16.7235 0.0810527 16.3534 0.0918219 16.0378 0H13.93C1.36432 0.775669 -4.60665 16.2212 4.15072 25.3827C8.22716 29.6472 13.812 30.7477 18.7481 29.4615C24.5888 27.9398 29.5211 23.0766 29.9725 16.1595C30.0074 15.626 29.972 15.067 29.9647 14.5179ZM24.7354 11.3032C21.2881 15.0633 17.4786 18.4904 13.9606 22.1916C13.3204 22.7497 12.4783 22.8053 11.7837 22.3637C11.7277 22.3282 11.6726 22.2894 11.6188 22.2473L5.49758 16.0731C4.95601 15.4869 4.8955 14.5338 5.35631 13.8799C5.57155 13.5745 7.07386 12.1104 7.37271 11.9736C7.98769 11.6919 8.67451 11.7937 9.21666 12.1783L12.6695 15.6362L12.7803 15.687L20.721 7.81563C20.919 7.65169 21.2125 7.48972 21.4677 7.44976C21.8984 7.38231 22.4192 7.4363 22.7904 7.67974C23.0509 7.85063 24.3141 9.11149 24.5675 9.43173C24.5744 9.44051 24.5805 9.44845 24.5859 9.45582C24.9648 9.9709 25.0229 10.7362 24.7354 11.3032Z" fill="#6BB52B"/>
<path d="M29.9722 16.1592C29.5208 23.0763 24.5885 27.9395 18.7479 29.4612V29.4547L11.7739 22.3731L11.7834 22.3634L24.5529 9.41797L24.5672 9.43143L29.9644 14.5176C29.9717 15.0667 30.0071 15.6257 29.9722 16.1592Z" fill="#58A218"/>
<path d="M24.5861 9.45557C24.9649 9.97065 25.0231 10.736 24.7356 11.3029C21.2882 15.0631 17.4788 18.4901 13.9608 22.1913C13.2689 22.7946 12.3415 22.8107 11.6189 22.2472L5.49776 16.073C4.95618 15.4868 4.89553 14.5336 5.35648 13.8797C5.57173 13.5744 7.07403 12.1102 7.37288 11.9733C7.98786 11.6916 8.67468 11.7935 9.21683 12.1782L12.6696 15.636L12.7805 15.6867L20.7212 7.81539C20.9192 7.65144 21.2126 7.48948 21.4678 7.44966C21.8986 7.38221 22.4194 7.43606 22.7906 7.67964C23.0581 7.85507 24.3839 9.18082 24.5861 9.45557Z" fill="white"/>
</svg>
