<svg width="24" height="24" viewBox="0 0 24 24" fill="none" xmlns="http://www.w3.org/2000/svg">
<path d="M17.771 4.57925C17.0135 4.57925 16.3993 5.19346 16.3993 5.95098C16.3993 6.7085 17.0135 7.3227 17.771 7.3227C18.5286 7.3227 19.1428 6.7085 19.1428 5.95098C19.1428 5.19346 18.5286 4.57925 17.771 4.57925ZM11.6836 6.33315C8.51016 6.33315 5.9305 8.91282 5.9305 12.0862C5.9305 15.2596 8.51016 17.8393 11.6836 17.8393C14.857 17.8393 17.4366 15.2596 17.4366 12.0862C17.4366 8.91282 14.857 6.33315 11.6836 6.33315ZM11.6836 15.7715C9.64986 15.7715 7.99833 14.1199 7.99833 12.0862C7.99833 10.0525 9.64986 8.40098 11.6836 8.40098C13.7173 8.40098 15.3688 10.0525 15.3688 12.0862C15.3688 14.1199 13.7173 15.7715 11.6836 15.7715ZM23.2921 7.30906C23.2921 3.43273 20.1528 0.293457 16.2765 0.293457H7.0156C3.13928 0.293457 0 3.43273 0 7.30906V16.5699C0 20.4462 3.13928 23.5855 7.0156 23.5855H16.2765C20.1528 23.5855 23.2921 20.4462 23.2921 16.5699V7.30906ZM21.0946 16.5699C21.0946 19.2315 18.938 21.388 16.2765 21.388H7.0156C4.35404 21.388 2.19749 19.2315 2.19749 16.5699V7.30906C2.19749 4.6475 4.35404 2.49095 7.0156 2.49095H16.2765C18.938 2.49095 21.0946 4.6475 21.0946 7.30906V16.5699Z" fill="white"/>
</svg>
