<svg width="38" height="27" viewBox="0 0 38 27" fill="none" xmlns="http://www.w3.org/2000/svg">
<path d="M4.37186 0.300282L33.0897 0.261719C35.6373 0.438174 37.1611 1.82879 37.3551 4.41018C37.0138 10.3092 37.7933 16.6896 37.3551 22.5325C37.2067 24.5133 36.1935 26.0313 34.2244 26.5303C24.0309 26.7733 13.7427 26.7733 3.55035 26.5303C1.55792 26.0196 0.578648 24.518 0.425564 22.5267C-0.0290139 16.6183 0.714204 10.0848 0.483993 4.12271C0.669798 1.86267 2.15506 0.528155 4.37186 0.300282ZM31.9749 2.95413H5.91556L18.8284 11.8342L31.9749 2.95413ZM34.6627 4.47328L19.512 14.6224C19.075 14.8643 18.5129 14.7954 18.0817 14.5698C13.4027 11.4357 8.82182 8.1473 4.13113 5.03187C3.82146 4.8262 3.48491 4.52938 3.11213 4.47328V22.9953C3.11213 23.2477 3.72797 23.9009 4.04349 23.9337L33.4392 23.9909C33.8645 24.047 34.6638 23.3435 34.6638 22.9953V4.47328H34.6627Z" fill="#B7AEAE"/>
</svg>
