<svg width="23" height="17" viewBox="0 0 23 17" fill="none" xmlns="http://www.w3.org/2000/svg">
<path d="M3.09828 0.769892L20.1842 0.746948C21.6998 0.851932 22.6065 1.67929 22.7219 3.2151C22.5188 6.72475 22.9826 10.5208 22.7219 13.9971C22.6336 15.1756 22.0308 16.0787 20.8593 16.3756C14.7946 16.5202 8.67353 16.5202 2.60952 16.3756C1.42411 16.0718 0.841484 15.1784 0.750405 13.9936C0.479951 10.4784 0.922133 6.59126 0.785168 3.04407C0.895714 1.69945 1.77938 0.905466 3.09828 0.769892ZM19.5209 2.34882H4.01671L11.6993 7.63206L19.5209 2.34882ZM21.12 3.25265L12.106 9.29094C11.846 9.43486 11.5116 9.39384 11.255 9.25965C8.47122 7.39498 5.74581 5.43853 2.95506 3.58498C2.77082 3.46262 2.57058 3.28602 2.3488 3.25265V14.2724C2.3488 14.4226 2.7152 14.8113 2.90292 14.8307L20.3921 14.8648C20.6451 14.8982 21.1207 14.4796 21.1207 14.2724V3.25265H21.12Z" fill="white"/>
</svg>
