<svg width="26" height="28" viewBox="0 0 26 28" fill="none" xmlns="http://www.w3.org/2000/svg">
<path d="M5.79658 1.23065C6.36372 1.22301 6.914 1.46214 7.34779 1.83186C8.32303 2.66204 10.6173 5.07708 11.3965 6.10568C13.298 8.61486 10.3771 10.0429 9.14884 11.6905C8.8725 12.0602 8.82992 12.2027 9.07413 12.6199C10.059 14.2972 12.6433 16.8894 14.1696 18.0732C14.6645 18.4565 15.1183 19.0425 15.6863 18.5913C17.1837 17.4008 18.5879 14.2319 20.8982 16.133C22.3619 17.338 23.7291 19.3732 25.1783 20.6706C27.075 23.3663 22.2808 26.6014 20.1126 26.988C16.1128 27.7012 10.5675 23.8319 7.74624 21.0454C4.14253 17.4873 -1.03327 10.1166 1.83057 4.81167C2.48287 3.60245 4.40924 1.25015 5.79658 1.23065ZM5.56201 2.74259C5.12018 2.86386 3.3368 5.01518 3.06608 5.52397C0.870602 9.65024 4.76591 15.531 7.38555 18.5489C10.4486 22.0774 18.0384 28.1006 22.4583 24.3008C22.6977 24.0947 23.995 22.7583 24.0939 22.5573C24.2176 22.3038 24.2184 22.0316 24.1485 21.7594L19.8852 17.2049C19.0394 16.8046 18.7228 17.5102 18.2537 18.0003C17.0503 19.2587 15.9851 21.0768 14.1383 19.8862C12.4625 18.8059 8.75682 15.0612 7.81372 13.2754C6.64006 11.0519 9.34164 9.88598 10.3474 8.3859C10.7708 7.755 10.6189 7.43023 10.1948 6.86887C9.54167 6.00308 7.4466 3.78476 6.62721 3.10299C6.28982 2.8223 6.02552 2.61709 5.56361 2.74429L5.56201 2.74259Z" fill="#505050" stroke="#B7AEAE" stroke-width="0.615326" stroke-miterlimit="10"/>
</svg>
