<svg width="16" height="17" viewBox="0 0 16 17" fill="none" xmlns="http://www.w3.org/2000/svg">
<path d="M3.11001 0.747056C3.45536 0.742409 3.79044 0.888024 4.05459 1.11316C4.64845 1.61868 6.04552 3.08928 6.52001 3.71563C7.67788 5.24355 5.89926 6.11311 5.15131 7.1164C4.98304 7.34154 4.95711 7.42829 5.10582 7.68234C5.70554 8.70371 7.27921 10.2822 8.20863 11.0031C8.50996 11.2365 8.78634 11.5933 9.13218 11.3186C10.044 10.5936 10.8991 8.66395 12.3059 9.82163C13.1972 10.5554 14.0298 11.7947 14.9122 12.5847C16.0672 14.2262 13.1478 16.1961 11.8275 16.4316C9.39193 16.8659 6.01519 14.5097 4.29722 12.8129C2.1028 10.6463 -1.04892 6.15803 0.694973 2.92766C1.09218 2.19133 2.26521 0.758933 3.11001 0.747056ZM2.96717 1.66773C2.69813 1.74157 1.61217 3.05159 1.44732 3.36141C0.110414 5.87403 2.4824 9.45501 4.07759 11.2928C5.94279 13.4413 10.5645 17.1091 13.2559 14.7952C13.4017 14.6698 14.1917 13.856 14.2518 13.7336C14.3272 13.5792 14.3277 13.4135 14.2851 13.2477L11.6891 10.4743C11.174 10.2306 10.9812 10.6602 10.6956 10.9587C9.96279 11.7249 9.31415 12.832 8.18955 12.1071C7.16914 11.4492 4.9126 9.16895 4.33831 8.08149C3.62364 6.72758 5.26872 6.01758 5.88116 5.10413C6.13895 4.71996 6.0465 4.52219 5.78821 4.18036C5.39052 3.65315 4.11476 2.30234 3.61581 1.88719C3.41036 1.71627 3.24942 1.59131 2.96815 1.66877L2.96717 1.66773Z" fill="white" stroke="white" stroke-width="0.374693" stroke-miterlimit="10"/>
</svg>
