<svg width="46" height="46" viewBox="0 0 46 46" fill="none" xmlns="http://www.w3.org/2000/svg">
<path d="M20.3907 0C20.5358 0.0492084 20.6876 0.0342058 20.8357 0.0378064C22.8415 0.0840143 24.7886 0.453077 26.6847 1.10419C29.1127 1.93833 31.3033 3.18774 33.2456 4.86743C35.9536 7.20963 37.9211 10.0619 39.1192 13.4405C39.6595 14.9647 40.0073 16.5316 40.162 18.1429C40.2837 19.4145 40.2933 20.6861 40.183 21.9571C40.0409 23.599 39.6895 25.1971 39.1462 26.7525C38.414 28.8487 37.37 30.7756 35.9998 32.5237C35.7803 32.804 35.7761 32.7224 36.0328 32.9792C39.112 36.0631 42.1918 39.1465 45.2741 42.2274C45.5883 42.5412 45.8414 42.8887 45.9385 43.3262C46.2779 44.8582 45.1512 45.9138 44.0604 45.993C43.4277 46.0386 42.8797 45.8616 42.4077 45.4421C42.3238 45.3677 42.2458 45.2867 42.1661 45.2075C39.112 42.1512 36.0586 39.0948 33.0051 36.0379C32.8484 35.8811 32.6853 35.8691 32.5158 36.0019C30.8517 37.3179 29.0132 38.3237 27.0253 39.054C25.3589 39.6661 23.6385 40.0394 21.8683 40.187C20.8219 40.2746 19.7737 40.2872 18.7279 40.2122C16.1625 40.028 13.7189 39.3805 11.4019 38.2547C9.05662 37.1151 7.01119 35.5752 5.25959 33.6477C3.64771 31.8738 2.39503 29.8719 1.50154 27.6443C0.933666 26.2275 0.528298 24.7662 0.288435 23.26C0.176899 22.5572 0.108538 21.8491 0.0755568 21.1374C0.0641633 20.8926 0.0539691 20.6465 0 20.4059V19.9564C0.061165 19.8142 0.0461736 19.6617 0.0533695 19.5135C0.10494 18.4501 0.204483 17.3928 0.405968 16.3462C0.807738 14.2554 1.52313 12.2781 2.55094 10.4148C3.88218 8.00176 5.64457 5.95421 7.80993 4.25592C9.70245 2.77187 11.8012 1.67368 14.0931 0.948161C15.9095 0.373263 17.769 0.0558095 19.6759 0.0330056C19.7797 0.0318054 19.8864 0.0444075 19.986 0H20.3901H20.3907ZM20.2336 35.9545C28.925 35.9113 35.9608 28.8319 35.9584 20.1502C35.956 11.3413 28.8303 4.31833 20.1695 4.32193C11.3185 4.32553 4.33192 11.5052 4.35231 20.1922C4.3721 28.7335 11.2903 35.9707 20.2336 35.9545Z" fill="#6BB52B"/>
<path d="M19.2429 29.5262C18.1819 29.5524 17.1478 29.3685 16.1708 28.9782C15.2255 28.6009 14.3713 28.0481 13.6318 27.3359C12.8917 26.623 12.3044 25.7864 11.8859 24.8498C11.6701 24.3672 11.5026 23.8632 11.3874 23.3509C11.1769 22.4161 10.2581 21.8311 9.33457 22.0436C8.41104 22.2566 7.83318 23.1866 8.04304 24.1215C8.20941 24.8599 8.45043 25.5865 8.76082 26.2803C9.3622 27.6263 10.2052 28.8276 11.2669 29.8499C12.3279 30.8722 13.5548 31.666 14.9128 32.2075C16.3195 32.7686 17.805 33.034 19.3276 32.9965C20.2746 32.9727 21.023 32.1771 20.9995 31.2185C20.9759 30.2599 20.19 29.5024 19.2429 29.5262Z" fill="#EF7C00"/>
</svg>
