<svg width="23" height="24" viewBox="0 0 23 24" fill="none" xmlns="http://www.w3.org/2000/svg">
<path fill-rule="evenodd" clip-rule="evenodd" d="M11.2468 0.68927C5.04331 0.68927 0 5.73258 0 11.9361C0 14.1199 0.621034 16.215 1.79485 18.0304L0.088722 21.7907C-0.0682418 22.1387 -0.0136553 22.5414 0.238852 22.8348C0.429938 23.06 0.702926 23.1829 0.982731 23.1829C1.07145 23.1829 1.15334 23.1692 1.24206 23.1487L5.95098 21.8589C7.57521 22.7256 9.39735 23.1829 11.2468 23.1829C17.4503 23.1829 22.4936 18.1395 22.4936 11.9361C22.4936 5.73258 17.4435 0.68927 11.2468 0.68927ZM11.2468 21.2174C9.60209 21.2174 7.99151 20.7806 6.57201 19.9549C6.42187 19.8661 6.25125 19.8184 6.07381 19.8184C5.98509 19.8184 5.89638 19.832 5.81449 19.8525L2.73663 20.6987L3.80808 18.3375C3.95139 18.0167 3.91727 17.6414 3.71254 17.3547C2.56602 15.7646 1.95863 13.8947 1.95863 11.9292C1.95863 6.81086 6.12159 2.6479 11.24 2.6479C16.3584 2.6479 20.5213 6.81086 20.5213 11.9292C20.5213 17.0476 16.3584 21.2106 11.24 21.2106L11.2468 21.2174Z" fill="white"/>
<path fill-rule="evenodd" clip-rule="evenodd" d="M15.5667 13.6218C15.0958 13.3419 14.4816 13.028 13.9288 13.2532C13.5057 13.4307 13.2327 14.0926 12.9529 14.4339C12.8096 14.6113 12.6458 14.6386 12.4274 14.5499C10.8305 13.9152 9.6021 12.8438 8.72174 11.3765C8.5716 11.1513 8.5989 10.967 8.77634 10.7555C9.04249 10.4415 9.37689 10.0867 9.45196 9.66354C9.52703 9.24042 9.32913 8.74905 9.15169 8.3737C8.92648 7.89599 8.68079 7.20671 8.19625 6.93373C7.75266 6.68122 7.17257 6.82454 6.77675 7.14529C6.0943 7.69808 5.76673 8.57161 5.78038 9.4315C5.78038 9.67718 5.81449 9.92287 5.86909 10.1549C6.00558 10.7213 6.27174 11.2536 6.56519 11.7587C6.7904 12.1408 7.02926 12.5094 7.28859 12.8642C8.14165 14.0244 9.20628 15.0344 10.4347 15.7851C11.0489 16.1605 11.7109 16.4949 12.4002 16.7201C13.1713 16.9726 13.8538 17.2387 14.6864 17.0818C15.5531 16.918 16.413 16.3789 16.761 15.5394C16.8634 15.2938 16.9112 15.014 16.8566 14.7546C16.7405 14.2155 16.0035 13.8879 15.5667 13.6286V13.6218Z" fill="white"/>
</svg>
