<svg width="25" height="26" viewBox="0 0 25 26" fill="none" xmlns="http://www.w3.org/2000/svg">
<path d="M22.6543 22.4358L14.8402 11.0798L13.9598 9.7968L8.35692 1.67563L7.89285 1H1.02057L2.6994 3.43635L10.1313 14.2396L11.0117 15.5226L16.9831 24.2033L17.4472 24.879H24.3195L22.6406 22.4426L22.6543 22.4358ZM18.2729 23.3162L12.0695 14.301L11.1891 13.018L3.98241 2.55599H7.08074L12.902 11.0184L13.7824 12.3014L21.3644 23.323H18.2661L18.2729 23.3162Z" fill="white" stroke="white" stroke-width="0.327577" stroke-miterlimit="10"/>
<path d="M11.1822 13.0179L12.0694 14.301L11.0184 15.5225L2.97911 24.8721H1L10.138 14.2395L11.1822 13.0179Z" fill="white" stroke="white" stroke-width="0.327577" stroke-miterlimit="10"/>
<path d="M23.5004 1L14.8333 11.0798L13.7891 12.3014L12.9019 11.0184L13.9529 9.7968L19.822 2.96546L21.5145 1H23.5004Z" fill="white" stroke="white" stroke-width="0.327577" stroke-miterlimit="10"/>
</svg>
