<svg width="68" height="83" viewBox="0 0 68 83" fill="none" xmlns="http://www.w3.org/2000/svg">
<path fill-rule="evenodd" clip-rule="evenodd" d="M29.6638 65.8722C33.6521 60.1821 46.3864 58.1546 43.46 53.6854C31.6395 59.5013 9.47837 59.5309 7.12537 82.5836C20.4146 72.7277 45.4245 88.5475 67.5227 47.8103C56.2424 56.2604 36.7561 68.9651 29.6601 65.8722" fill="#6E6E6E"/>
<path fill-rule="evenodd" clip-rule="evenodd" d="M33.7667 31.1322C50.6447 11.4758 84.2526 29.6413 58.7803 52.6866C69.761 33.3003 57.3411 20.3107 33.7667 31.1322Z" fill="#6BB52B"/>
<path fill-rule="evenodd" clip-rule="evenodd" d="M12.3382 62.2576C-22.2761 4.50921 26.0788 -7.06341 34.2477 26.3003C22.9526 13.2627 -6.47103 7.32467 12.3382 62.2576Z" fill="#EF7C00"/>
<path fill-rule="evenodd" clip-rule="evenodd" d="M22.4458 0.546922C23.8442 -0.666574 26.5931 0.206552 28.5761 2.50036C30.5629 4.79416 31.0364 7.63552 29.6342 8.84901C28.2321 10.0625 25.4869 9.18938 23.5039 6.89558C21.5171 4.60178 21.0436 1.76042 22.4458 0.546922Z" fill="#EF7C00"/>
<path fill-rule="evenodd" clip-rule="evenodd" d="M40.5705 21.2467C40.1339 19.9037 41.5583 18.2351 43.7559 17.5211C45.9535 16.8034 48.0882 17.3139 48.5248 18.6532C48.9614 19.9962 47.537 21.6648 45.3394 22.3788C43.1418 23.0965 41.007 22.586 40.5705 21.2467Z" fill="#6BB52B"/>
<path fill-rule="evenodd" clip-rule="evenodd" d="M13.9142 56.4455C-2.78988 17.066 23.637 13.4736 30.2742 29.8373C24.0217 22.6156 10.2478 27.3475 13.9142 56.4455Z" fill="#6BB52B"/>
<path fill-rule="evenodd" clip-rule="evenodd" d="M35.8867 36.0972C47.7108 22.327 71.2519 35.0539 53.4084 51.1993C61.1 37.6178 52.402 28.5165 35.8867 36.0972Z" fill="#EF7C00"/>
</svg>
