<svg width="57" height="56" viewBox="0 0 57 56" fill="none" xmlns="http://www.w3.org/2000/svg">
<path d="M47.6688 45.3104L47.7145 44.9459C48.1235 41.6906 47.8264 38.6295 46.8301 35.8461C45.9731 33.4478 43.9027 30.0291 41.9226 28.4614C41.9134 28.4545 41.9031 28.4454 41.8917 28.4363C41.3878 30.1285 40.7399 31.6939 39.9618 33.0993C40.7879 34.1105 40.973 35.3994 40.452 36.5888C39.9013 37.8491 38.7175 38.6627 37.4366 38.6627C36.8014 38.6627 36.1798 38.4661 35.5913 38.0788C34.0979 37.095 33.9265 35.5422 34.2636 34.4156C34.6989 32.9633 35.957 31.9875 37.3932 31.9875C37.6263 31.9875 37.8628 32.0126 38.1005 32.0618C38.1519 31.9544 38.2022 31.847 38.2536 31.7396C38.9815 30.2062 39.7322 28.6237 39.9984 26.9372C37.9337 25.6289 36.0872 24.7982 34.2122 24.3331C33.9334 24.4942 33.6672 24.6976 33.3884 24.9136C33.105 25.1318 32.8125 25.3569 32.4903 25.5454C31.1797 26.3133 29.8337 26.7018 28.4923 26.7018C27.0137 26.7018 25.5363 26.231 24.0989 25.3021C23.9881 25.2301 23.7961 25.077 23.5744 24.901C23.3539 24.725 22.9666 24.4165 22.7952 24.3126C20.9693 24.8199 19.2896 25.526 17.8008 26.4138C17.9242 28.2352 18.4818 30.229 19.4222 32.2057C19.9603 32.0789 20.5019 32.0149 21.0367 32.0149C22.5872 32.0149 24.0235 32.5485 25.189 33.5563C26.6069 34.7823 27.1611 36.558 27.697 38.2753C27.8558 38.7849 28.0066 39.266 28.178 39.7344L28.2912 40.0441L24.8153 41.2518L24.1686 39.1906L25.5809 38.7049C25.4632 38.4067 25.3615 38.1085 25.2632 37.8171C25.0016 37.0424 24.7536 36.3112 24.2292 35.677C23.4442 34.7286 22.2799 34.1836 21.0321 34.1836C19.4256 34.1836 18.011 35.0611 17.3392 36.4734C16.5645 38.1039 17.0535 39.4819 17.6191 41.0782C17.6591 41.1924 17.7003 41.3067 17.7414 41.4232L19.1217 40.9936L19.9478 43.0149L16.4102 44.2329L16.32 43.8981C16.152 43.2754 15.9155 42.6481 15.6858 42.0414C15.1796 40.7022 14.6575 39.3162 14.7763 37.7897C14.878 36.478 15.583 34.9286 16.5302 33.9345C16.6285 33.8317 16.7873 33.7083 16.9724 33.5666C17.1152 33.4569 17.3643 33.2638 17.4637 33.1576C17.4123 32.9839 17.2295 32.6 17.1255 32.3817C17.0227 32.1669 16.9347 31.9818 16.889 31.8573C16.4022 30.5193 16.056 29.1378 15.7578 27.8775C13.6623 29.6212 11.9518 31.8481 10.792 34.347C9.55112 37.023 8.96724 39.9652 9.10093 42.8549C9.12721 43.4228 9.19691 44.2398 9.28032 44.7025C9.28489 44.7288 9.29175 44.746 9.29403 44.7494C9.28718 44.7368 9.44714 45.3298 9.38544 45.3104H7.19162L7.15963 45.0213C6.54718 39.4499 7.77093 34.1699 10.608 30.1536C12.9972 26.7692 16.729 24.1069 21.151 22.6215C19.7524 20.7316 18.0545 17.8945 17.3403 14.5421C16.6136 11.1302 17.089 8.05087 18.7537 5.392C20.8744 2.01672 24.516 0 28.5014 0C32.4868 0 36.1284 2.01672 38.2422 5.39314C39.907 8.05315 40.3834 11.1314 39.6556 14.5432C38.9426 17.8876 37.2515 20.7202 35.8541 22.6101C39.3562 23.6807 42.5224 25.7625 45.035 28.6511C47.6391 31.6447 49.3118 35.2383 49.8752 39.0432C50.154 40.9308 50.1505 42.8881 49.866 45.0282L49.8283 45.3093H47.6676L47.6688 45.3104ZM37.4549 34.203C37.3589 34.203 37.2561 34.2122 37.1487 34.2305C36.6128 34.3207 36.3603 34.7926 36.3077 35.1697C36.2529 35.5605 36.3729 36.1044 36.8928 36.3534C37.071 36.4391 37.255 36.4826 37.4378 36.4826C37.8811 36.4826 38.2948 36.2232 38.4924 35.8221C38.681 35.4382 38.6261 35.0063 38.3416 34.6349C38.1154 34.3402 37.8331 34.203 37.4549 34.203ZM19.1171 11.3485C19.1114 11.3804 19.1148 11.4467 19.1171 11.489L19.1194 11.5484C19.1891 13.8005 20.0095 16.5679 21.3132 18.9514C22.7757 21.6251 24.6622 23.4899 26.6252 24.2017C27.2525 24.4291 27.8855 24.5445 28.5083 24.5445C29.7788 24.5445 31.7304 24.0441 33.8134 21.6571C35.1503 20.1249 36.318 18.0602 37.0173 15.9898C37.8503 13.5206 38.0491 11.3793 37.6229 9.45971C36.3832 10.0619 35.164 10.3555 33.9094 10.3555C32.9622 10.3555 31.9864 10.1796 31.0094 9.83335C30.405 9.61853 29.8714 9.31803 29.3549 9.0278C28.7379 8.67931 28.154 8.35137 27.4708 8.17084C26.9177 8.02459 26.3761 7.95032 25.8608 7.95032C23.827 7.95032 22.2456 9.10093 20.5716 10.3201C20.1043 10.6606 19.6221 11.0114 19.1171 11.3473V11.3485ZM28.4968 2.16297C27.2 2.16297 25.9339 2.42806 24.7365 2.95138C22.4718 3.93974 20.6368 5.90732 19.7718 8.21769C21.5623 6.91168 23.5264 5.7782 25.8997 5.7782C26.5452 5.7782 27.2125 5.86276 27.8855 6.02844C28.7276 6.23639 29.4646 6.64088 30.1776 7.0328C30.7501 7.34702 31.2905 7.6441 31.879 7.8452C32.5874 8.08743 33.2855 8.21083 33.9528 8.21083C34.9492 8.21083 35.9101 7.94803 36.8825 7.40757C35.3537 4.21168 32.0938 2.16297 28.498 2.16297H28.4968Z" fill="#6BB52B"/>
<path d="M30.9882 55.4591C30.4581 55.4591 29.929 55.1129 29.4171 54.7781C29.0972 54.569 28.7944 54.3702 28.5259 54.2811C28.3031 54.3725 28.0369 54.5462 27.7569 54.729C27.2336 55.0706 26.6417 55.458 26.0887 55.458C25.8133 55.458 25.57 55.362 25.3631 55.1735C24.8273 54.6833 25.0592 53.8183 25.2637 53.0539C25.3643 52.6791 25.4591 52.3238 25.458 52.053C25.3049 51.8519 25.0386 51.6314 24.7587 51.3994C24.0297 50.7961 23.1225 50.0443 23.7303 49.1302C24.064 48.6286 24.8593 48.584 25.6282 48.5417C26.0247 48.52 26.4006 48.4983 26.6554 48.4149C26.7674 48.2355 26.892 47.9259 27.0222 47.5979C27.3239 46.8427 27.637 46.0623 28.11 45.916C28.2597 45.8691 28.4048 45.8463 28.5396 45.8463C29.4069 45.8463 29.7474 46.7524 30.049 47.5534C30.169 47.8722 30.2832 48.1749 30.4192 48.3966C30.6717 48.4857 31.0499 48.5109 31.4487 48.5372C32.196 48.5863 32.9695 48.6377 33.3455 49.1062C33.5283 49.3347 33.5911 49.6375 33.5328 50.0077C33.4769 50.3653 33.3055 50.507 33.1409 50.6441C33.0895 50.6864 33.037 50.7298 32.9855 50.7824C32.7924 50.9789 32.5856 51.1629 32.3845 51.34C32.1274 51.5674 31.8623 51.8016 31.6327 52.0621C31.635 52.3204 31.7252 52.6666 31.8212 53.0311C32.0394 53.8595 32.2863 54.7975 31.6258 55.2569C31.4339 55.3906 31.2191 55.4591 30.9871 55.4591H30.9882ZM28.5122 52.8677C29.0309 52.8677 29.48 53.1647 29.9142 53.4515C30.1416 53.6012 30.3587 53.7452 30.5815 53.8469C30.5472 53.6332 30.4855 53.3956 30.4215 53.1487C30.273 52.5752 30.1187 51.9821 30.265 51.508C30.3369 51.2726 30.7689 50.8955 31.419 50.3471C31.5675 50.2214 31.7401 50.0763 31.8589 49.9677C31.6372 49.93 31.371 49.9186 31.0945 49.906C30.4786 49.8797 29.8411 49.8512 29.4811 49.5198C29.2766 49.3313 29.0378 48.7908 28.7487 48.1052C28.6642 47.9041 28.591 47.7316 28.535 47.6162C28.5328 47.6128 28.5316 47.6082 28.5293 47.6048C28.4653 47.751 28.3934 47.9316 28.3202 48.1201C28.0929 48.6983 27.8586 49.297 27.5958 49.5324C27.2313 49.8592 26.4121 49.8923 25.7539 49.9197C25.5528 49.9277 25.3631 49.9357 25.2203 49.9517C25.2135 49.9517 25.2066 49.9529 25.1998 49.954C25.3049 50.0465 25.4603 50.1757 25.5951 50.2865C26.2624 50.8361 26.7423 51.2463 26.8223 51.5068C26.9708 51.989 26.8166 52.5809 26.6669 53.1533C26.6029 53.3967 26.5423 53.6309 26.508 53.8423C26.7343 53.7189 27.0942 53.4995 27.3376 53.351C27.7067 53.1259 27.9203 52.9968 28.0072 52.9625C28.1728 52.8985 28.3419 52.8665 28.5099 52.8665L28.5122 52.8677Z" fill="#6BB52B"/>
<path d="M42.5429 55.4808C42.0665 55.4808 41.5203 55.1255 40.9924 54.7815C40.6668 54.569 40.3571 54.3679 40.1046 54.2765C39.8406 54.3725 39.547 54.5667 39.2385 54.7724C38.7254 55.1129 38.1964 55.4648 37.6605 55.4648C37.5017 55.4648 37.3486 55.4328 37.2069 55.3688C36.3202 54.9724 36.6162 53.8435 36.8538 52.9374C36.9407 52.6083 37.0218 52.2964 37.0367 52.0644L35.3764 50.515L35.3707 50.5082C35.1171 50.2134 35.0428 49.8055 35.1742 49.417C35.3079 49.0228 35.6198 48.7383 36.0072 48.656C36.1831 48.6194 36.5339 48.5954 36.9407 48.568C37.3657 48.5394 38.0639 48.4926 38.2318 48.4263C38.3747 48.1978 38.4889 47.8836 38.6089 47.5511C38.9003 46.7501 39.2305 45.8417 40.1126 45.8417C40.2531 45.8417 40.4039 45.8669 40.5628 45.9149C41.0118 46.0531 41.31 46.7981 41.598 47.5191C41.7397 47.8744 41.8745 48.2115 41.999 48.392C42.2504 48.4869 42.6355 48.5132 43.0411 48.5406C43.7735 48.5897 44.5311 48.6411 44.9081 49.0925C45.0841 49.3038 45.1538 49.5815 45.115 49.9197C45.0521 50.4693 44.2831 51.0875 43.665 51.5834C43.4764 51.7353 43.3119 51.8667 43.1942 51.9753C43.1805 52.037 43.2045 52.1981 43.2136 52.2609L43.2228 52.3238C43.2456 52.5032 43.3085 52.7386 43.3747 52.9865C43.5941 53.8103 43.8661 54.8364 43.1576 55.2889C43.0331 55.3688 42.7703 55.4603 42.6263 55.474C42.5978 55.4763 42.5692 55.4774 42.5406 55.4774L42.5429 55.4808ZM40.1663 52.8471C40.1983 52.8471 40.2314 52.8482 40.2634 52.8517C40.613 52.8814 41.0175 53.1453 41.446 53.4253C41.6894 53.5841 41.9396 53.7475 42.1601 53.8492C42.1384 53.7612 42.111 53.6572 42.0859 53.5589C41.8025 52.478 41.5877 51.4851 42.0653 51.1972L43.4033 49.9609C43.1862 49.9277 42.9268 49.9163 42.656 49.9049C42.0607 49.8797 41.446 49.8523 41.1055 49.5735C40.7856 49.3118 40.4565 48.4423 40.1469 47.5751C40.1411 47.5579 40.1343 47.5408 40.1286 47.5237C40.0257 47.7053 39.9229 47.9727 39.8155 48.2526C39.5995 48.8171 39.3756 49.3998 39.0317 49.6261C38.6855 49.8534 37.9907 49.8866 37.3783 49.9163C37.1635 49.9266 36.9601 49.9369 36.8104 49.954C36.7979 49.9551 36.7876 49.9574 36.7761 49.9586C36.871 50.0443 37.0161 50.162 37.1406 50.2636C37.7988 50.8007 38.3507 51.276 38.4307 51.6599C38.5243 52.1158 38.3404 52.7717 38.1793 53.3498C38.1301 53.5247 38.0833 53.6926 38.0456 53.8457C38.273 53.7463 38.5095 53.5955 38.7563 53.439C39.2122 53.1476 39.6841 52.8471 40.1674 52.8471H40.1663Z" fill="#6BB52B"/>
<path d="M49.2151 55.4751C49.1603 55.4751 49.1066 55.4705 49.0563 55.4614C48.7444 55.4077 48.5124 55.2649 48.3661 55.0386C48.0119 54.4902 48.2439 53.5967 48.4484 52.8083C48.5227 52.5226 48.5924 52.2518 48.6175 52.0496C48.469 51.877 48.213 51.6633 47.9422 51.4383C47.3149 50.9172 46.6671 50.3779 46.6534 49.8397C46.6237 48.6548 47.8348 48.5897 48.8083 48.5372C49.1945 48.5166 49.5613 48.4972 49.8173 48.416C49.943 48.1852 50.0458 47.8973 50.1532 47.5945C50.4434 46.7775 50.7725 45.852 51.714 45.852C51.8283 45.852 51.9494 45.8657 52.0751 45.8943C52.5447 46.0005 52.8818 46.7832 53.2737 47.7956C53.3719 48.0481 53.4576 48.2709 53.5296 48.416C53.7879 48.4926 54.1672 48.5154 54.566 48.5383C55.2858 48.5806 56.0308 48.624 56.385 48.9999C56.609 49.2376 56.713 49.4969 56.6958 49.7712C56.6547 50.4133 55.9634 50.9835 55.3532 51.4862C55.1076 51.6885 54.8733 51.8816 54.7282 52.045C54.7534 52.2427 54.8231 52.5089 54.8951 52.79C55.0893 53.5361 55.3304 54.465 54.9899 55.0181C54.8551 55.2374 54.6425 55.3803 54.3569 55.442C54.2895 55.4568 54.2175 55.4637 54.1444 55.4637C53.6142 55.4637 53.0337 55.0889 52.4716 54.7267C52.1791 54.5382 51.9025 54.3599 51.6706 54.2628C51.4364 54.3599 51.1518 54.5439 50.8525 54.7381C50.2949 55.0992 49.719 55.4717 49.2128 55.4717L49.2151 55.4751ZM48.3547 49.9586C48.4484 50.0443 48.5901 50.1608 48.7135 50.2625C49.3602 50.7961 49.9041 51.2703 49.9967 51.6725C50.0915 52.0838 49.9247 52.6963 49.7636 53.2881C49.7087 53.4881 49.6562 53.6812 49.6185 53.8503C49.8436 53.7303 50.2069 53.5087 50.4514 53.359C50.8548 53.1122 51.1084 52.9591 51.2227 52.9214C51.3552 52.8779 51.4912 52.8551 51.6295 52.8551C52.1436 52.8551 52.6053 53.1556 53.052 53.4458C53.2851 53.5978 53.5091 53.7429 53.7307 53.8423C53.693 53.6664 53.6382 53.4675 53.5822 53.2607C53.4245 52.6803 53.2623 52.0793 53.3514 51.6725C53.4325 51.3023 53.9364 50.8589 54.5865 50.3162C54.7317 50.1962 54.9008 50.0545 55.0013 49.9586C54.9876 49.9563 54.9728 49.954 54.9568 49.9529C54.8002 49.9346 54.6025 49.9254 54.3923 49.9151C53.7741 49.8866 53.0749 49.8534 52.6955 49.5746C52.451 49.3953 52.1893 48.7988 51.874 48.039C51.8088 47.8813 51.7334 47.7019 51.674 47.5694C51.5666 47.7727 51.4684 48.0344 51.3724 48.2892C51.1793 48.8022 50.9793 49.3336 50.6548 49.5746C50.28 49.8534 49.5762 49.8866 48.9546 49.9151C48.7455 49.9254 48.5478 49.9346 48.3936 49.9529C48.3799 49.954 48.3673 49.9563 48.357 49.9574L48.3547 49.9586Z" fill="#6BB52B"/>
<path d="M14.4829 55.466C13.9402 55.466 13.5871 55.0821 13.4328 54.3234L13.426 54.2891L13.9402 52.0393C13.7619 51.8485 13.4923 51.6314 13.2089 51.4028C12.7633 51.0441 12.3017 50.6727 12.1085 50.3276C11.928 50.0054 11.9086 49.6364 12.0571 49.3153C12.2125 48.9771 12.5359 48.7314 12.9209 48.656C13.0923 48.6228 13.3917 48.6011 13.7379 48.5771C14.1813 48.5463 14.9125 48.4949 15.0782 48.4058C15.2427 48.1704 15.3684 47.839 15.501 47.4882C15.7889 46.725 16.1157 45.86 16.9887 45.86C17.1143 45.86 17.2492 45.8794 17.3886 45.916C17.8959 46.0508 18.2033 46.8427 18.4992 47.6082C18.6226 47.9281 18.7403 48.2309 18.8511 48.4138C19.1174 48.4926 19.4807 48.5132 19.8623 48.5337C20.6062 48.5749 21.3752 48.6183 21.7556 49.0925C21.9522 49.337 22.0173 49.6706 21.9499 50.0843C21.8859 50.4762 21.3637 50.9035 20.8107 51.3548C20.5091 51.6017 20.1983 51.8553 20.0532 52.045C20.0657 52.3101 20.1548 52.6426 20.2497 52.9934C20.4405 53.7029 20.6565 54.5062 20.2714 55.0261C20.0589 55.3117 19.7846 55.458 19.4556 55.458C18.9402 55.458 18.3884 55.1072 17.8548 54.7678C17.5223 54.5565 17.2069 54.3565 16.9521 54.2788C16.7487 54.3805 16.5145 54.529 16.2665 54.6856C15.6895 55.0512 15.0359 55.4648 14.484 55.4648L14.4829 55.466ZM17.0515 52.8585C17.1886 52.8585 17.3234 52.8802 17.4526 52.9225C17.576 52.9636 17.8193 53.1145 18.2055 53.3579C18.4501 53.5121 18.8157 53.7406 19.0454 53.8606C19.0111 53.7258 18.97 53.5772 18.9277 53.4241C18.7586 52.814 18.5655 52.1227 18.6614 51.6599C18.7403 51.276 19.2922 50.7995 19.9515 50.2636C20.076 50.162 20.22 50.0443 20.316 49.9586C20.3057 49.9574 20.2942 49.9551 20.2828 49.954C20.1034 49.9323 19.9012 49.9254 19.6864 49.9186C18.9368 49.8923 18.0867 49.8626 17.6868 49.2102C17.5874 49.0479 17.408 48.5886 17.2355 48.1452C17.1521 47.9304 17.0549 47.6813 16.9864 47.5225C16.919 47.6699 16.8378 47.8767 16.7533 48.0938C16.4653 48.8331 16.2425 49.3724 15.9843 49.5758C15.6347 49.8523 14.9057 49.8877 14.2624 49.9186C14.0567 49.9289 13.8613 49.938 13.7174 49.9551C13.7002 49.9574 13.6854 49.9597 13.6716 49.9609C13.7665 50.0523 13.9219 50.1837 14.0544 50.2956C14.588 50.747 15.253 51.3091 15.3262 51.7639C15.3673 52.0187 15.2393 52.566 15.0542 53.311C15.0096 53.4893 14.9594 53.6938 14.9262 53.8446C15.1388 53.7463 15.3559 53.6069 15.5832 53.463C16.0483 53.1659 16.5293 52.8585 17.0515 52.8585Z" fill="#6BB52B"/>
<path d="M2.94631 55.4751C2.89603 55.4751 2.84804 55.4717 2.8012 55.4637C2.49155 55.4111 2.2596 55.2706 2.1122 55.0455C1.75342 54.4948 1.99451 53.551 2.18876 52.7934C2.26188 52.5089 2.33044 52.2381 2.35443 52.0393C2.20132 51.845 1.93395 51.6291 1.65173 51.4005C0.918167 50.8075 -0.0850494 49.9951 0.646224 49.065C0.984439 48.6354 1.79455 48.584 2.57724 48.5337C2.95659 48.5097 3.31652 48.4869 3.55989 48.4206C3.62502 48.2778 3.70272 48.0755 3.7907 47.8459C4.15862 46.8849 4.47284 46.1365 4.88647 45.9606C5.07729 45.8794 5.26011 45.8383 5.43036 45.8383C6.29074 45.8383 6.66095 46.8495 6.95803 47.6608C7.06315 47.9464 7.16256 48.2184 7.26997 48.4172C7.56247 48.504 7.93497 48.5223 8.32803 48.5406C9.27754 48.5863 10.459 48.6423 10.4179 49.9574V49.9677L10.4156 49.978C10.3379 50.451 9.74487 50.9424 9.17128 51.4177C8.89134 51.6496 8.62511 51.8702 8.47085 52.0507C8.49485 52.2781 8.57369 52.5843 8.6571 52.9054C8.84792 53.6401 9.06273 54.473 8.77136 54.9427C8.55427 55.2912 8.25833 55.4683 7.89041 55.4683C7.34309 55.4683 6.73065 55.0695 6.18905 54.7187C5.90454 54.5336 5.63488 54.3588 5.41779 54.2685C5.1984 54.3634 4.92075 54.5393 4.62938 54.7244C4.04779 55.0946 3.44563 55.4763 2.94517 55.4763L2.94631 55.4751ZM5.46349 52.8574C5.6006 52.8574 5.73772 52.8791 5.87026 52.9237C5.9731 52.9579 6.20848 53.0996 6.61525 53.3464C6.86776 53.4995 7.24483 53.7281 7.47906 53.8515C7.4425 53.6766 7.3888 53.4835 7.33281 53.2836C7.12371 52.5352 6.88719 51.6862 7.36366 51.1435L7.36937 51.1377L7.37509 51.132C7.43107 51.0795 7.57847 50.9549 7.76586 50.7972C8.02638 50.5779 8.51085 50.1688 8.73137 49.9586C8.72223 49.9574 8.71195 49.9563 8.70052 49.9551C8.54969 49.9369 8.35545 49.9277 8.14978 49.9186C7.49849 49.8877 6.76036 49.8534 6.38672 49.5381C6.08393 49.2833 5.86112 48.6948 5.64517 48.1258C5.56861 47.9247 5.49548 47.7305 5.4235 47.5682C5.26925 47.871 5.02244 48.4697 4.90132 48.7623C4.79506 49.0193 4.74364 49.145 4.71851 49.1896C4.32545 49.8854 3.40336 49.9037 2.58981 49.9186C2.41728 49.922 2.25046 49.9254 2.09849 49.9346C2.23446 50.1082 2.47784 50.3082 2.73607 50.5196C3.18626 50.8898 3.65245 51.2726 3.74043 51.6736C3.82955 52.0804 3.6673 52.6814 3.50962 53.2619C3.45363 53.4687 3.39993 53.6675 3.36108 53.8435C3.58389 53.7441 3.8067 53.5989 4.03979 53.447C4.48655 53.1567 4.94817 52.8562 5.46235 52.8562L5.46349 52.8574Z" fill="#6BB52B"/>
</svg>
