<svg width="51" height="49" viewBox="0 0 51 49" fill="none" xmlns="http://www.w3.org/2000/svg">
<path d="M50.0412 18.4098C50.4086 18.7681 50.5235 19.9172 50.1158 20.331L38.879 31.3826C38.7456 32.0503 38.806 32.7238 38.8596 33.3946C39.1965 37.6047 41.0209 42.6597 41.1844 46.8085C41.2216 47.7528 41.1529 48.8386 39.9681 48.9631C39.1375 49.0505 30.2097 43.9172 28.6015 43.1236C27.2737 42.4683 25.6786 41.2427 24.2094 41.8921C19.9939 43.5633 15.2922 47.3228 11.1569 48.7845C9.57319 49.3442 9.13333 48.2124 9.18884 46.8085C9.35191 42.6822 11.1306 37.6016 11.5156 33.3965C11.5769 32.7267 11.6199 32.0497 11.4942 31.3828L0.257555 20.331C-0.149928 19.9172 -0.0352393 18.7681 0.332151 18.4098C1.46998 17.2999 14.4988 16.7155 16.7892 15.5915C17.0719 15.4144 17.1947 15.1243 17.3713 14.8625C19.8684 11.1595 21.3428 4.97038 23.9164 1.47786C24.4446 0.761203 25.0926 0.480745 25.9756 0.912129C27.2773 1.54803 31.8335 13.8475 33.5841 15.5915L34.294 15.9306C36.4973 16.5139 49.089 17.4813 50.0412 18.4098ZM25.445 5.502C24.8332 5.36881 25.0258 5.58489 24.8615 5.83874C23.077 8.59687 20.6645 16.3932 18.3497 17.9381C17.4792 18.5191 16.7909 18.5979 15.7984 18.7961C12.121 19.5301 8.15683 19.6456 4.46809 20.4501L13.5231 29.3556C14.4823 30.4356 14.4998 31.7646 14.3988 33.1318C14.1235 36.8605 12.7299 41.0502 12.3369 44.8316L23.6861 39.006C24.6154 38.6754 25.7611 38.676 26.6877 39.006L38.0369 44.8316C37.6438 41.05 36.2502 36.8605 35.975 33.1318C35.874 31.7646 35.8915 30.4356 36.8507 29.3556L45.9057 20.4501C42.2169 19.6456 38.2528 19.5299 34.5754 18.7961C32.6795 18.4177 31.7591 18.1268 30.643 16.4345C28.5983 13.3338 27.2814 8.81777 25.445 5.502Z" fill="#6BB52B"/>
</svg>
