<svg width="65" height="65" viewBox="0 0 65 65" fill="none" xmlns="http://www.w3.org/2000/svg">
<path d="M0 7.86782C0.133577 7.71357 0.515224 7.23333 0.698097 7.23333H6.98256V2.97955C6.98256 1.79962 8.90034 0.260314 10.0246 0.0535879C12.0664 -0.323289 14.6012 1.33688 14.6012 3.48842V7.23333H20.3784C20.8395 7.23333 21.2307 8.15088 21.0113 8.62793C20.9811 8.69313 20.5422 9.13839 20.5056 9.13839H14.6012V11.6143C14.6012 14.0092 11.6418 15.5994 9.45214 14.8583C8.47098 14.526 6.98256 13.0535 6.98256 11.996V9.13998H2.09429C2.08157 9.13998 1.90347 9.31649 1.90347 9.3308V17.4567C1.90347 17.4694 2.07998 17.6475 2.09429 17.6475H43.2311C43.2677 17.6475 43.7066 18.0912 43.7368 18.158C43.9562 18.635 43.5667 19.5526 43.1039 19.5526H1.90506V53.4524H12.6341C12.6961 53.4524 13.2495 53.8007 13.3195 53.9088C13.8777 54.7755 12.9633 55.4847 12.1237 55.4815C8.67294 55.2287 4.72607 55.8282 1.33577 55.4815C0.72513 55.4195 0.435714 55.2605 0 54.8486L0 7.86782ZM9.43941 2.45161C9.20725 2.68218 8.92578 3.28328 8.88603 3.61245C8.69997 5.11837 8.69679 9.98596 8.90034 11.476C9.1977 13.6561 12.2779 13.583 12.5626 11.7336C12.941 9.28151 12.3034 5.92142 12.5626 3.37074C12.2493 1.97773 10.4619 1.43388 9.43941 2.4532V2.45161Z" fill="#83B52B"/>
<path d="M54.089 7.23331H60.2462C60.8266 7.23331 61.0381 8.09202 61.0763 8.56113C61.3721 12.0866 60.9586 15.8283 60.9379 19.3522C60.9045 24.9815 60.9729 30.6124 60.9475 36.2417C67.6533 44.4217 65.8612 56.4976 56.8718 62.1349C47.8824 67.7721 37.0548 64.2976 32.4193 55.4751L16.8338 55.4688C15.1482 55.2414 15.6459 53.4476 16.5682 53.4476H31.4875C27.97 43.8619 33.6438 33.3571 43.3647 30.7253C43.608 30.3612 43.3026 25.8593 43.4171 24.9386C43.503 24.2516 44.0023 24.0528 44.6289 23.9908C46.0123 23.8525 48.6886 23.8763 50.0944 23.986C50.9928 24.056 51.4381 24.215 51.5494 25.1978C51.6448 26.0358 51.3936 30.2991 51.6051 30.6013C54.3466 31.2835 56.8877 32.5842 59.0408 34.4034V19.5478H47.2956C46.9458 19.5478 46.4926 18.9451 46.4719 18.5857C46.456 18.3202 46.8711 17.6427 47.0412 17.6427H59.0392V9.13519H54.0874V11.9912C54.0874 12.0548 53.685 13.0169 53.6055 13.16C52.4097 15.3227 49.3899 15.7234 47.6264 14.0091C47.1939 13.5893 46.4703 12.3204 46.4703 11.7383V9.13519H24.3141C24.233 9.13519 23.8847 8.85373 23.8132 8.74718C23.457 8.21447 23.8609 7.23172 24.4413 7.23172H46.4703V3.35959C46.4703 3.2117 46.7407 2.38798 46.8281 2.19398C48.0621 -0.542753 52.0678 -0.782873 53.5546 1.86004C53.6548 2.03814 54.0874 2.99862 54.0874 3.10516V7.23172L54.089 7.23331ZM50.1246 1.92682C49.0926 2.00633 48.5312 2.82211 48.4104 3.77781C48.1941 5.47456 48.2211 9.24492 48.3706 10.983C48.6139 13.8183 51.8007 13.6847 52.1537 11.5825C52.044 9.10021 52.4049 6.30941 52.1887 3.8621C52.0917 2.76645 51.2902 1.83459 50.1246 1.92523V1.92682ZM49.5171 26.0231H45.327V30.2133H49.5171V26.0231ZM46.6977 32.1565C35.9337 32.9341 29.2453 44.3263 33.9173 54.1298C39.2604 65.3391 55.2896 65.7224 61.2194 54.8041C66.9696 44.2181 58.6655 31.2914 46.6977 32.1565Z" fill="#83B52B"/>
<path d="M17.3618 24.2786C17.4906 24.3979 17.6305 24.8734 17.6512 25.0674C17.8054 26.4572 17.7832 29.6297 17.6544 31.0434C17.5955 31.6842 17.3888 32.0388 16.6987 32.1199C15.3088 32.2821 12.0171 32.2535 10.5955 32.1231C9.95463 32.0643 9.60002 31.8575 9.51892 31.1674C9.3599 29.803 9.38852 26.586 9.51415 25.1914C9.60797 24.1578 10.0135 24.0544 10.9755 23.9861C12.4147 23.8843 15.0321 23.8493 16.4411 23.9908C16.6557 24.0131 17.2202 24.1483 17.3602 24.2786H17.3618ZM15.7445 26.0231H11.4272V30.2133H15.7445V26.0231Z" fill="#83B52B"/>
<path d="M21.1083 24.2786C21.2482 24.1482 21.8127 24.0131 22.0274 23.9908C23.4109 23.8525 26.0872 23.8763 27.4929 23.986C28.3787 24.0544 28.8653 24.223 28.9543 25.1914C29.0815 26.5797 29.1086 29.8093 28.9511 31.1674C28.8716 31.8575 28.5154 32.0642 27.8746 32.1231C26.4529 32.2535 23.1612 32.2805 21.7714 32.1199C21.0812 32.0404 20.8745 31.6842 20.8157 31.0433C20.6869 29.6297 20.6646 26.4572 20.8189 25.0674C20.8411 24.8718 20.9795 24.3979 21.1083 24.2786ZM27.0445 26.0231H22.7271V30.2133H27.0445V26.0231Z" fill="#83B52B"/>
<path d="M32.413 24.285C32.5863 24.1387 33.0904 24.0163 33.3274 23.9924C34.7092 23.8541 37.3871 23.8779 38.7929 23.9876C39.6786 24.056 40.1652 24.2246 40.2543 25.193C40.3815 26.5765 40.4006 29.6789 40.2479 31.0402C40.1763 31.6858 39.9808 32.0436 39.2986 32.1231C37.9008 32.2837 34.6218 32.2567 33.1954 32.1263C32.5545 32.0674 32.1999 31.8607 32.1188 31.1706C31.9598 29.7982 31.9821 26.4652 32.1125 25.0658C32.1363 24.805 32.2095 24.4583 32.4114 24.2866L32.413 24.285ZM38.3444 26.0231H34.027V30.2133H38.3444V26.0231Z" fill="#83B52B"/>
<path d="M10.6353 37.2307C11.8152 37.0479 15.0831 37.0749 16.3139 37.1989C17.031 37.2721 17.559 37.4772 17.6512 38.2739C17.8102 39.624 17.7816 42.868 17.6544 44.2499C17.6051 44.7905 17.4222 45.2517 16.8291 45.3296C15.6603 45.4839 11.5099 45.4839 10.3411 45.3296C9.83699 45.2628 9.57779 44.87 9.51895 44.3739C9.38538 43.2337 9.35675 39.2423 9.52849 38.1562C9.6255 37.5456 10.0835 37.315 10.6337 37.2307H10.6353ZM15.7446 39.228H11.4272V43.4182H15.7446V39.228Z" fill="#83B52B"/>
<path d="M21.9352 37.2307C23.1151 37.0479 26.383 37.0749 27.6138 37.1989C28.331 37.2721 28.8589 37.4772 28.9512 38.2739C29.1102 39.624 29.0815 42.868 28.9543 44.2499C28.905 44.7905 28.7222 45.2517 28.129 45.3296C26.9602 45.4839 22.8098 45.4839 21.641 45.3296C21.1369 45.2628 20.8777 44.87 20.8189 44.3739C20.6853 43.2337 20.6567 39.2423 20.8284 38.1562C20.9254 37.5456 21.3834 37.315 21.9336 37.2307H21.9352ZM27.0445 39.228H22.7271V43.4182H27.0445V39.228Z" fill="#83B52B"/>
<path d="M51.295 43.7999H54.151C54.601 43.7999 55.3309 44.7286 55.4279 45.1897C55.5758 45.8926 55.5758 48.6866 55.4279 49.3942C55.3309 49.8586 54.5994 50.7841 54.151 50.7841H51.295V53.5144C51.295 54.0201 50.4442 54.8407 49.9322 54.9456C49.3502 55.0649 45.9933 55.0569 45.4494 54.9154C44.9056 54.7739 44.1836 53.9104 44.1836 53.3872V50.7841C42.3072 50.7109 40.1779 51.3756 39.9887 48.8218C39.9171 47.8533 39.836 45.22 40.3735 44.498C41.2211 43.3594 42.9512 43.9351 44.1836 43.7999V41.1968C44.1836 40.6211 44.9135 39.8626 45.4542 39.6749C46.3256 39.3712 49.153 39.3712 50.0228 39.6749C50.5078 39.8451 51.2934 40.5543 51.2934 41.0711V43.8015L51.295 43.7999ZM49.2627 41.5132H46.2159V44.6236C46.2159 44.9258 45.6975 45.7034 45.3906 45.7034H41.8985V48.8774H45.5178C45.7022 48.8774 46.2159 49.7266 46.2159 49.9572V53.0676H49.2627V49.9572C49.2627 49.655 49.7811 48.8774 50.088 48.8774H53.5801V45.7034H50.088C49.7811 45.7034 49.2627 44.9274 49.2627 44.6236V41.5132Z" fill="#83B52B"/>
</svg>
