<svg width="63" height="62" viewBox="0 0 63 62" fill="none" xmlns="http://www.w3.org/2000/svg">
<path d="M14.9348 24.7594C15.1325 24.9948 18.2227 25.0997 18.3361 26.344C18.5183 28.336 16.1276 26.8596 15.2047 26.6929C14.0944 26.4918 11.7811 26.5537 11.5404 28.0163C11.25 29.79 14.5086 29.7281 15.5501 30.0014C18.8174 30.8556 19.4739 34.7226 16.3098 36.1783C16.0279 36.309 14.9744 36.5719 14.9366 36.6321C14.7819 36.8778 15.16 38.3198 13.9861 38.2528C12.8123 38.1858 13.1646 36.8039 13.0185 36.6269C12.9721 36.5719 11.8704 36.4069 11.6178 36.3279C10.8083 36.0701 9.33879 35.6834 9.68253 34.5937C10.0916 33.2995 11.6882 34.4425 12.5459 34.6435C13.4035 34.8446 14.2783 34.9237 15.148 34.6384C17.0506 34.0145 16.9423 32.3096 15.0208 31.7905C13.694 31.4313 12.6731 31.7201 11.3514 30.9243C9.12052 29.5803 9.13083 26.6688 11.4339 25.3815C11.7587 25.1993 12.9291 24.8487 12.9755 24.78C13.2007 24.4483 12.8346 23.173 13.9724 23.1472C15.2064 23.1197 14.8025 24.6064 14.9331 24.7594H14.9348Z" fill="#6BB52B"/>
<path d="M33.4159 3.54565C33.8336 3.99766 33.617 4.97732 32.9811 5.12512C32.5033 5.23512 29.8875 5.22824 29.3598 5.14575C28.265 4.97216 28.2289 3.51987 29.2533 3.28956C29.7843 3.17097 32.0289 3.19332 32.6322 3.26034C32.8247 3.28097 33.2991 3.42018 33.4159 3.54737V3.54565Z" fill="#6BB52B"/>
<path d="M62.008 20.3458V21.1932C60.5884 26.3063 60.334 32.1378 58.9453 37.201C58.8388 37.586 58.5432 38.2666 58.074 38.2666H36.5818C36.9169 38.961 36.7021 40.6711 37.3105 41.1093C37.9189 41.5476 39.7115 41.1643 40.5021 41.3018C41.5986 38.5536 45.2182 38.5829 46.3491 41.3001H50.7884C51.9365 38.5261 55.905 38.5691 56.7437 41.5356C57.6443 44.7169 53.614 46.8635 51.4123 44.447C51.182 44.1944 50.9088 43.4932 50.6939 43.4674L46.3508 43.4708C45.1804 46.121 41.6433 46.1709 40.4986 43.4708C38.1578 43.5327 35.6451 43.6977 34.9249 40.9581C33.4194 33.0418 32.9072 24.6873 31.3415 16.8139C31.2899 16.5579 31.2538 16.1436 31.1249 15.9408C31.0579 15.8377 30.5285 15.506 30.4701 15.506H25.809V13.447H30.9548C31.7316 13.447 32.9192 14.7464 33.1805 15.4596C33.6256 16.6764 33.452 18.3161 33.8198 19.4212C33.8525 19.5192 33.8903 19.5845 33.9968 19.6068L60.9854 19.6206C61.489 19.6257 61.7262 20.0124 62.0115 20.3493L62.008 20.3458ZM59.7067 21.6778H34.1584L36.513 36.2145L56.9293 36.1544L59.7067 21.6778ZM43.4239 41.3517C42.1383 41.3156 41.9527 43.3608 43.4221 43.3625C44.7679 43.3643 44.7507 41.3878 43.4239 41.3517ZM53.7119 41.3517C52.4006 41.386 52.4779 43.2594 53.5916 43.3625C55.1488 43.5069 55.068 41.3173 53.7119 41.3517Z" fill="#6BB52B"/>
<path d="M45.2989 61.9984H16.7223C14.3574 61.4192 12.6249 59.6713 12.3774 57.2016C12.0681 54.1182 12.5528 50.5691 12.3912 47.4377C12.649 46.0026 14.5413 46.379 14.5413 47.5305V51.7086H47.4765V46.4408C47.4765 46.3704 47.7532 45.7963 47.8426 45.7173C48.4802 45.145 49.4633 45.5282 49.6283 46.348C49.4393 49.8284 49.9841 53.7762 49.6421 57.2033C49.3963 59.6576 47.6535 61.4484 45.2972 62.0001L45.2989 61.9984ZM47.4782 53.7659H14.543V57.5797C14.543 58.5696 16.3803 59.9858 17.3891 59.9394C26.7216 59.8208 36.116 60.1835 45.4141 59.7555C46.1583 59.6043 47.4765 58.3015 47.4765 57.5797V53.7659H47.4782Z" fill="#6BB52B"/>
<path d="M47.4782 8.23768H14.543V14.4731C14.543 15.6246 12.6507 16.001 12.3929 14.5659C12.9343 9.62982 10.0692 1.02606 17.1416 0L44.993 0.00687476C46.9351 0.180462 49.4015 1.93009 49.6438 3.95299L49.6283 16.6249C49.3636 18.0944 47.4782 17.5891 47.4782 16.6541V8.2394V8.23768ZM47.4782 6.18041V3.81893C47.4782 3.23457 45.3024 1.94384 44.6321 2.06415L17.506 2.05899C16.4559 1.93009 14.5447 3.41676 14.5447 4.42391V6.18041H47.48H47.4782Z" fill="#6BB52B"/>
<path d="M12.2176 17.5977C22.4301 16.7538 29.872 27.0006 25.7385 36.4465C21.7374 45.5917 9.40067 47.2262 3.04324 39.535C-3.78855 31.2698 1.57891 18.4776 12.2176 17.5977ZM12.8226 19.6549C3.83899 20.1809 -1.08506 30.505 4.32194 37.7716C9.79081 45.1225 21.3628 43.2611 24.233 34.5783C26.7354 27.0126 20.7715 19.1909 12.8226 19.6567V19.6549Z" fill="#6BB52B"/>
<path d="M52.404 24.5446C52.1926 24.7371 51.8231 24.8058 51.5395 24.8316C47.0056 25.2458 41.8444 24.5068 37.2434 24.8282C36.1108 24.7457 35.8049 23.4635 36.7038 22.8293L51.7784 22.764C52.6618 22.764 53.0073 23.9912 52.404 24.5446Z" fill="#6BB52B"/>
<path d="M54.4664 22.7933C54.8549 22.7074 56.9345 22.7108 57.292 22.8225C58.1737 23.0975 58.0293 24.5876 57.0789 24.8007C56.6578 24.8953 54.9202 24.8781 54.4974 24.7681C53.461 24.5 53.5573 22.9961 54.4664 22.7933Z" fill="#6BB52B"/>
<path d="M28.5538 55.8488L33.3695 55.8264C34.4523 56.1942 34.3423 57.7015 33.2441 57.8751C32.6253 57.9731 29.2361 57.9817 28.6758 57.8562C27.7013 57.6379 27.6239 56.2612 28.5538 55.8488Z" fill="#6BB52B"/>
</svg>
