<svg width="133" height="45" viewBox="0 0 133 45" fill="none" xmlns="http://www.w3.org/2000/svg">
<path d="M123.752 20.068H123.638H123.475H123.312H123.147H122.982H122.816H122.649H122.481H122.313H122.144H121.974H121.803H121.631H121.458H121.285H121.111H120.936H120.76H120.584H120.406H120.228H120.049H119.87H119.689H119.508H119.326H119.143H118.96H118.775H118.59H118.405H118.218H118.031H117.843H117.654H117.465H117.274H117.084H116.892H116.7H116.506H116.313H116.118H115.923H115.727H115.53H115.333H115.135H114.936H114.737H114.537H114.336H114.135H113.933H113.73H113.527H113.322H113.118H112.912H112.706H112.5H112.292H112.084H111.876H111.666H111.456H111.246H111.035H110.823H110.61H110.397H110.184H109.969H109.755H109.539H109.323H109.106H108.889H108.671H108.453H108.234H108.014H107.794H107.573H107.352H107.13H106.908H106.684H106.461H106.237H106.012H105.787H105.561H105.335H105.108H104.881H104.653H104.424H104.195H103.966H103.736H103.505H103.274H103.043H102.811H102.578H102.345H102.111H101.877H101.643H101.408H101.172H100.936H100.7H100.463H100.226H99.9878H99.7495H99.5107H99.2715H99.0319H98.7917H98.5512H98.3102H98.0687H97.8269H97.5846H97.3418H97.0987H96.8551H96.6111H96.3667H96.1218H95.8766H95.631H95.3849H95.1385H94.8917H94.6444H94.3968H94.1488H93.9005H93.6517H93.4026H93.1531H92.9032H92.653H92.4024H92.1514H91.9001H91.6484H91.3964H91.1441H90.8914H90.6383H90.385H90.1313H89.8772H89.6229H89.3682H89.1132H88.8579H88.6022H88.3463H88.0901H87.8335H87.5767H87.3196H87.0621H86.8044H86.5464H86.2881H86.0296H85.7707H85.5116H85.2522H84.9926H84.7327H84.4725H84.2121H83.9514H83.6905H83.4293H83.1679H82.9063H82.6444H82.3823H82.1199H81.8574H81.5946H81.3316H81.0683H80.8049H80.5413H80.2774H80.0133H79.7491H79.4846H79.22H78.9551H78.6901H78.4249H78.1595H77.894H77.6283H77.3624H77.0963H76.8301H76.5637H76.2971H76.0304H75.7636H75.4966H75.2295H74.9622H74.6948H74.4272H74.1596H73.8918H73.6239H73.3558H73.0877H72.8194H72.551H72.2825H72.0139H71.7453H71.4765H71.2076H70.9386H70.6696H70.4005H70.1312H69.8619H69.5926H69.3232H69.0536H68.7841H68.5145H68.2448H67.9751H67.7053H67.4354H67.1656H66.8957H66.6257H66.3557H66.0857H65.8157H65.5456H65.2756H65.0055H64.7353H64.4652H64.1951H63.925H63.6548H63.3847H63.1146H62.8445H62.5744H62.3043H62.0342H61.7642H61.4942H61.2242H60.9543H60.6844H60.4145H60.1447H59.8749H59.6051H59.3355H59.0658H58.7963H58.5268H58.2573H57.988H57.7187H57.4495H57.1803H56.9113H56.6423H56.3735H56.1047H55.836H55.5674H55.2989H55.0305H54.7623H54.4941H54.2261H53.9581H53.6904H53.4227H53.1551H52.8877H52.6205H52.3533H52.0863H51.8195H51.5528H51.2863H51.0199H50.7536H50.4876H50.2217H49.9559H49.6904H49.425H49.1598H48.8948H48.6299H48.3653H48.1008H47.8366H47.5725H47.3087H47.045H46.7816H46.5184H46.2554H45.9926H45.73H45.4676H45.2055H44.9436H44.682H44.4206H44.1594H43.8985H43.6378H43.3774H43.1172H42.8573H42.5977H42.3383H42.0792H41.8204H41.5618H41.3035H41.0455H40.7878H40.5304H40.2732H40.0164H39.7599H39.5036H39.2477H38.9921H38.7367H38.4817H38.2271H37.9727H37.7187H37.465H37.2116H36.9586H36.7059H36.4535H36.2015H35.9498H35.6985H35.4476H35.197H34.9467H34.6969H34.4474H34.1982H33.9495H33.7011H33.4531H33.2055H32.9583H32.7114H32.465H32.219H31.9733H31.7281H31.4833H31.2388H30.9948H30.7513H30.5081H30.2654H30.0231H29.7812H29.5398H29.2988H29.0582H28.8181H28.5784H28.3392H28.1004H27.8621H27.6243H27.3869H27.15H26.9136H26.6776H26.4421H26.2071H25.9726H25.7386H25.505H25.272H25.0394H24.8074H24.5758H24.3448H24.1143H23.8843H23.6548H23.4258H23.1973H22.9694H22.742H22.5152H22.2889H22.0631H21.8378H21.6132H21.389H21.1654H20.9424H20.72H20.4981H20.2767H20.056H19.8358H19.6162H19.3972H19.1787H18.9609H18.7436H18.5269H18.3108H18.0954H17.8805H17.6662H17.4526H17.2396H17.0271H16.8153H16.6042H16.3936H16.1837H15.9744H15.7658H15.5578H15.3504H15.1437H14.9376H14.7322H14.5274H14.3233H14.1199H13.9172H13.7151H13.5136H13.3129H13.1128H12.9135H12.7148H12.5168H12.3195H12.1228H11.9269H11.7317H11.5372H11.3434H11.1504H10.958H10.7664H10.5754H10.3852H10.1958H10.0071H9.81907H9.63182H9.44531H9.25955H9.07454H8.89028H8.70678H8.52404H8.34206H8.16085H7.98041H7.80074H7.62185H7.44374H7.26641H7.08987H6.91412H6.73916H6.565H6.39163H6.21907H6.04732H5.87637H5.70624H5.53693H5.36843H5.20076H5.03392H4.8679H4.70272H4.53837H4.37486H4.2122H4.05038C3.96693 20.068 3.88228 20.0678 3.79676 20.0675C3.53452 20.0666 3.26408 20.0657 2.99484 20.0728L2.99392 20.0729C2.28675 20.0929 1.66171 20.3184 1.2072 20.75C0.749325 21.1848 0.50862 21.7874 0.500223 22.4719L1.00019 22.478L0.500223 22.4719C0.4918 23.1599 0.723768 23.7719 1.17446 24.2167C1.62239 24.6587 2.24579 24.896 2.95234 24.9178C2.95209 24.9178 2.95184 24.9178 2.95158 24.9178L123.752 20.068ZM123.752 20.068C118.939 15.0675 114.118 10.0758 109.295 5.08383C109.273 5.06103 109.25 5.03775 109.227 5.01398C108.914 4.69372 108.512 4.28294 108.323 3.71419L108.323 3.71409C107.969 2.6512 108.421 1.45642 109.365 0.866175C110.337 0.257182 111.597 0.415233 112.448 1.28222C113.592 2.44723 114.723 3.62548 115.852 4.80081C116.164 5.12552 116.476 5.45001 116.787 5.77394C117.71 6.73185 118.633 7.68988 119.555 8.64787C123.704 12.9558 127.852 17.2631 132.014 21.5565L132.014 21.5569C132.23 21.7795 132.481 22.0751 132.499 22.458C132.517 22.8591 132.276 23.1738 132.035 23.4226C125.54 30.1231 119.06 36.8422 112.591 43.5684C112.248 43.9255 111.854 44.2262 111.395 44.3835C110.924 44.5447 110.42 44.5428 109.891 44.3518C108.961 44.0191 108.359 43.2949 108.214 42.2948C108.065 41.2716 108.657 40.5749 109.157 40.0583C110.97 38.18 112.781 36.3011 114.592 34.4222C115.788 33.1808 116.985 31.9395 118.182 30.6983C118.824 30.0317 119.466 29.3659 120.108 28.7002C121.321 27.4435 122.533 26.1873 123.741 24.9273L123.752 20.068Z" fill="white" stroke="white"/>
</svg>
