<svg width="11" height="17" viewBox="0 0 11 17" fill="none" xmlns="http://www.w3.org/2000/svg">
<path d="M2.45736 0.751569L8.72411 0.746948C9.45452 0.858137 10.0216 1.48917 10.0982 2.28742V14.9101C10.0221 15.7811 9.396 16.4196 8.59537 16.484L2.58317 16.4826C1.81925 16.4202 1.19124 15.7984 1.10559 14.9678L1.10692 2.20222C1.20959 1.4574 1.76738 0.853805 2.45736 0.751569ZM9.51224 2.93838V2.25969C9.51224 1.89609 9.01244 1.39127 8.67144 1.38202L2.55551 1.37769C2.1113 1.41466 1.6655 1.91862 1.6655 2.40409V2.93838H9.51224ZM9.51224 3.57374H1.6655V13.0753H9.51224V3.57374ZM9.51224 13.7107H1.6655V14.8226C1.6655 15.3239 2.14721 15.8366 2.60871 15.849C4.67546 15.8146 6.75737 15.9131 8.81534 15.7987C9.09517 15.7447 9.51224 15.2685 9.51224 14.967V13.7107Z" fill="white" stroke="white" stroke-width="0.338796"/>
</svg>
