<svg width="54" height="48" viewBox="0 0 54 48" fill="none" xmlns="http://www.w3.org/2000/svg">
<path d="M51.2514 0.697437V7.3196C49.1634 8.45312 47.5824 10.5114 46.5085 13.4943C45.4943 16.4176 44.9872 20.2954 44.9872 25.1278V27.1861H53.4886V47.0526H33.6222V32.1974C33.6222 23.1889 35.0838 16.0597 38.0071 10.8097C40.9304 5.55965 45.3452 2.18891 51.2514 0.697437ZM18.1406 0.697437V7.3196C16.0526 8.45312 14.4716 10.5114 13.3977 13.4943C12.3835 16.4176 11.8764 20.2954 11.8764 25.1278V27.1861H20.3778V47.0526H0.511364V32.1974C0.511364 23.1889 1.97301 16.0597 4.89631 10.8097C7.8196 5.55965 12.2344 2.18891 18.1406 0.697437Z" fill="#6BB52B"/>
</svg>
