<svg width="73" height="74" viewBox="0 0 73 74" fill="none" xmlns="http://www.w3.org/2000/svg">
<ellipse cx="36.5" cy="37" rx="36.5" ry="37" fill="#6BB52B"/>
<path d="M33.3907 14C33.5358 14.0492 33.6876 14.0342 33.8357 14.0378C35.8415 14.084 37.7886 14.4531 39.6847 15.1042C42.1127 15.9383 44.3033 17.1877 46.2456 18.8674C48.9536 21.2096 50.9211 24.0619 52.1192 27.4405C52.6595 28.9647 53.0073 30.5316 53.162 32.1429C53.2837 33.4145 53.2933 34.6861 53.183 35.9571C53.0409 37.599 52.6895 39.1971 52.1462 40.7525C51.414 42.8487 50.37 44.7756 48.9998 46.5237C48.7803 46.804 48.7761 46.7224 49.0328 46.9792C52.112 50.0631 55.1918 53.1465 58.2741 56.2274C58.5883 56.5412 58.8414 56.8887 58.9385 57.3262C59.2779 58.8582 58.1512 59.9138 57.0604 59.993C56.4277 60.0386 55.8797 59.8616 55.4077 59.4421C55.3238 59.3677 55.2458 59.2867 55.1661 59.2075C52.112 56.1512 49.0586 53.0948 46.0051 50.0379C45.8484 49.8811 45.6853 49.8691 45.5158 50.0019C43.8517 51.3179 42.0132 52.3237 40.0253 53.054C38.3589 53.6661 36.6385 54.0394 34.8683 54.187C33.8219 54.2746 32.7737 54.2872 31.7279 54.2122C29.1625 54.028 26.7189 53.3805 24.4019 52.2547C22.0566 51.1151 20.0112 49.5752 18.2596 47.6477C16.6477 45.8738 15.395 43.8719 14.5015 41.6443C13.9337 40.2275 13.5283 38.7662 13.2884 37.26C13.1769 36.5572 13.1085 35.8491 13.0756 35.1374C13.0642 34.8926 13.054 34.6465 13 34.4059V33.9564C13.0612 33.8142 13.0462 33.6617 13.0534 33.5135C13.1049 32.4501 13.2045 31.3928 13.406 30.3462C13.8077 28.2554 14.5231 26.2781 15.5509 24.4148C16.8822 22.0018 18.6446 19.9542 20.8099 18.2559C22.7024 16.7719 24.8012 15.6737 27.0931 14.9482C28.9095 14.3733 30.769 14.0558 32.6759 14.033C32.7797 14.0318 32.8864 14.0444 32.986 14H33.3901H33.3907ZM33.2336 49.9545C41.925 49.9113 48.9608 42.8319 48.9584 34.1502C48.956 25.3413 41.8303 18.3183 33.1695 18.3219C24.3185 18.3255 17.3319 25.5052 17.3523 34.1922C17.3721 42.7335 24.2903 49.9707 33.2336 49.9545Z" fill="white"/>
<path d="M32.2429 43.5262C31.1819 43.5524 30.1478 43.3685 29.1708 42.9782C28.2255 42.6009 27.3713 42.0481 26.6318 41.3359C25.8917 40.623 25.3044 39.7864 24.8859 38.8498C24.6701 38.3672 24.5026 37.8632 24.3874 37.3509C24.1769 36.4161 23.2581 35.8311 22.3346 36.0436C21.411 36.2566 20.8332 37.1866 21.043 38.1215C21.2094 38.8599 21.4504 39.5865 21.7608 40.2803C22.3622 41.6263 23.2052 42.8276 24.2669 43.8499C25.3279 44.8722 26.5548 45.666 27.9128 46.2075C29.3195 46.7686 30.805 47.034 32.3276 46.9965C33.2746 46.9727 34.023 46.1771 33.9995 45.2185C33.9759 44.2599 33.19 43.5024 32.2429 43.5262Z" fill="white"/>
</svg>
