<svg width="176" height="124" viewBox="0 0 176 124" fill="none" xmlns="http://www.w3.org/2000/svg">
<path d="M111.469 17.6132H123.2C121.284 2.03267 142.777 1.9592 140.798 17.6132C150.579 16.8736 152.921 18.4557 155.928 27.228C158.935 36.0003 160.924 45.2184 163.98 54.0054C167.698 58.4332 172.547 61.9696 175.917 66.6325L176 102.858C175.936 104.269 174.986 105.361 173.585 105.576C171.273 105.939 158.568 105.043 158.029 105.601C157.339 113.345 151.192 120.177 143.805 122.362C126.648 127.436 111.929 110.029 119.159 93.8703H63.6153C61.7149 93.8703 60.0397 88.6539 64.0022 88.0269L123.542 87.8065C130.576 81.4832 140.392 80.1558 148.601 85.1469C149.355 85.6024 152.103 88.0073 152.338 88.0073H170.118V68.7582L158.676 57.1009C155.022 47.5253 153.263 36.402 149.6 26.9488C149.321 26.2239 147.881 23.481 147.205 23.481H111.459V80.1265C111.459 82.1346 106.203 83.511 105.616 79.7395L105.606 9.35519C105.361 6.70537 104.783 6.11761 102.123 5.87271H9.35029C7.96905 5.71107 5.8825 6.81312 5.8825 8.26783V88.0123H23.6623C23.8974 88.0123 26.65 85.6073 27.3994 85.1518C40.0314 77.4766 56.5377 85.1518 58.3107 99.743H108.726C112.458 100.115 112.414 105.268 108.726 105.621H58.3059C54.9801 128.915 21.3063 128.95 17.9708 105.616C13.156 105.194 7.45476 106.169 2.74778 105.621C1.49389 105.474 0.661231 104.974 0.17143 103.799L0 8.24824C0.191022 3.96738 3.99187 0.191022 8.24824 0L103.583 0.019592C106.6 -0.191022 111.469 4.33963 111.469 7.16578V17.6132ZM134.935 17.6132C136.238 9.74213 127.764 9.74213 129.067 17.6132H134.935ZM36.593 88.1102C17.7553 90.0694 20.361 118.512 39.0518 117.332C58.4822 116.107 56.3369 86.0579 36.593 88.1102ZM136.316 88.1102C117.479 90.0694 120.084 118.512 138.775 117.332C158.206 116.107 156.06 86.0579 136.316 88.1102ZM19.4451 93.8703H5.87761V99.7381H17.9757C17.8532 97.6564 18.8524 95.7903 19.4402 93.8703H19.4451ZM170.132 93.8703H156.565C157.152 95.7903 158.152 97.6515 158.029 99.7381H170.127V93.8703H170.132Z" fill="white"/>
<path d="M64.541 38.1407H74.2587C75.4685 38.1407 76.1983 40.1881 76.2913 41.2412C76.5264 43.8469 76.6342 50.8902 76.2521 53.3343C76.1248 54.1572 75.0228 55.7392 74.2587 55.7392H64.541V65.4569C64.541 66.6667 62.4937 67.3965 61.4406 67.4896C58.8348 67.7247 51.7915 67.8324 49.3474 67.4504C48.5245 67.323 46.9425 66.221 46.9425 65.4569V55.7392H37.2248C36.015 55.7392 35.2852 53.6919 35.1922 52.6388C34.9571 50.0331 34.8493 42.9897 35.2314 40.5456C35.3587 39.7228 36.4608 38.1407 37.2248 38.1407H46.9425V28.4231C46.9425 27.2133 48.9899 26.4835 50.0429 26.3904C52.6487 26.1553 59.692 26.0475 62.1361 26.4296C62.959 26.5569 64.541 27.659 64.541 28.4231V38.1407ZM58.6732 32.2778H52.8054V41.9954C52.8054 42.4265 51.2184 44.0134 50.7874 44.0134H41.0698V49.8812H50.7874C51.2184 49.8812 52.8054 51.4682 52.8054 51.8992V61.6169H58.6732V51.8992C58.6732 51.4682 60.2602 49.8812 60.6912 49.8812H70.4088V44.0134H60.6912C60.2602 44.0134 58.6732 42.4265 58.6732 41.9954V32.2778Z" fill="white"/>
<path d="M119.433 29.4224L142.473 29.3244C143.595 29.3538 144.413 30.3873 144.859 31.3424L152.108 55.2936C152.25 57.4047 150.677 58.5116 148.708 58.6977C139.745 59.5206 129.542 58.0316 120.442 58.6977C118.782 58.781 117.415 57.6643 117.337 55.9402C117.998 48.4021 116.484 39.4535 117.337 32.0918C117.493 30.735 118.096 29.8338 119.438 29.4273L119.433 29.4224ZM144.834 52.8103L139.52 35.2118H123.204V52.8103H144.834Z" fill="white"/>
<path d="M119.061 64.6145C119.972 64.35 126.32 64.4088 127.255 64.7027C129.875 65.5256 129.704 69.9093 126.662 70.3844C125.404 70.5803 120.266 70.5803 119.149 70.2423C116.519 69.444 116.798 65.2758 119.061 64.6145Z" fill="white"/>
<path d="M36.5881 93.9682C46.4674 92.5723 50.8903 105.199 42.6665 110.308C38.5326 112.879 32.993 111.199 30.5048 107.193C27.3309 102.084 30.6566 94.8058 36.5881 93.9682ZM40.242 104.768C43.0927 101.918 38.4249 97.8034 35.9269 100.634C33.4289 103.465 37.6412 107.364 40.242 104.768Z" fill="white"/>
<path d="M136.311 93.9683C146.284 92.5576 150.609 105.204 142.39 110.308C138.256 112.879 132.716 111.199 130.228 107.193C127.074 102.114 130.453 94.796 136.311 93.9683ZM139.965 104.768C142.816 101.918 138.148 97.8034 135.65 100.634C133.206 103.407 137.365 107.364 139.965 104.768Z" fill="white"/>
</svg>
