<svg width="132" height="144" viewBox="0 0 132 144" fill="none" xmlns="http://www.w3.org/2000/svg">
<path d="M54.5624 41.5582C52.187 41.4371 49.7372 39.7674 48.5105 37.4319C47.5293 35.5657 47.5579 33.5983 48.625 32.0474L48.6413 32.0213L48.6532 32.0022L48.6691 31.9862L51.4805 29.1599L51.4805 29.1599L52.2056 28.4311L52.2059 28.4305L52.2219 28.4118L52.2234 28.4101C52.245 28.3849 52.2717 28.3537 52.3033 28.3221L53.6156 27.0098L53.6158 27.0096L54.797 25.8322L54.7972 25.832L56.7256 23.9035L54.5624 41.5582ZM54.5624 41.5582L54.5563 41.5765H54.8337C55.1442 41.5765 55.4475 41.5493 55.7437 41.4948C55.7441 41.4948 55.7444 41.4947 55.7448 41.4947L55.8861 41.4695V59.43C55.8861 59.7566 56.0542 60.1363 56.3186 60.524C56.5874 60.9183 56.974 61.347 57.4515 61.7769L57.4527 61.778C57.6354 61.9398 58.0458 62.2901 58.5396 62.6009C59.0259 62.907 59.6267 63.1966 60.1836 63.1966C60.2704 63.1966 60.3478 63.1879 60.4416 63.177C62.7974 63.0057 65.3483 62.9237 68.2402 62.9237C72.2822 62.9237 76.4778 63.0876 80.5469 63.2465L80.7003 63.2525L80.7005 63.2525L54.5624 41.5582ZM107.691 41.4948C107.988 41.5493 108.295 41.5765 108.602 41.5765C111.065 41.5765 113.658 39.8689 114.933 37.4392C115.914 35.5763 115.881 33.6092 114.814 32.0586L114.798 32.0325L114.79 32.0197L114.78 32.0083L114.758 31.9822L114.753 31.9764L114.747 31.9711C112.54 29.7572 110.311 27.4945 108.122 25.2727C107.742 24.8874 107.364 24.5033 106.987 24.1209C99.5488 16.5668 91.8526 8.7509 83.98 1.45038L83.949 1.41937L83.9286 1.399L83.9033 1.3852L83.8627 1.36305C83.8626 1.36298 83.8625 1.36292 83.8624 1.36285L83.8622 1.36277L83.7664 1.53835M107.691 41.4948L66.274 14.2904L66.272 14.2919C66.2535 14.306 66.2283 14.3252 66.2035 14.3475L66.2033 14.3473L66.1958 14.3548L61.7731 18.7775C60.9439 19.6068 60.9433 20.9484 61.7731 21.7745M107.691 41.4948L107.691 41.4947L107.691 41.4948ZM83.7664 1.53835C83.1197 1.18319 82.4393 1 81.7401 1C80.6447 1 79.5194 1.4561 78.4876 2.31224L66.4532 14.4027M83.7664 1.53835L83.8076 1.56078M83.7664 1.53835L83.8076 1.56078M66.4532 14.4027L66.3194 14.2541C66.3182 14.2551 66.317 14.2562 66.3158 14.2573L66.3114 14.2617L66.4532 14.4027ZM66.4532 14.4027C66.4345 14.4196 66.4148 14.4345 66.3952 14.4495C66.3756 14.4644 66.356 14.4794 66.3373 14.4962L61.9145 18.9189C61.1631 19.6704 61.1631 20.8854 61.9145 21.6331M61.9145 21.6331L61.7731 21.7745M61.9145 21.6331L61.7735 21.7749C61.7734 21.7748 61.7732 21.7747 61.7731 21.7745M61.9145 21.6331C62.5902 22.3087 63.6408 22.3677 64.3936 21.8241L64.4044 21.835L64.5366 21.9672L61.7731 21.7745M64.4594 21.78L64.5943 21.9139C64.5947 21.9135 64.5944 21.9138 64.5929 21.916L64.5901 21.9202L64.5858 21.9268C64.5798 21.9357 64.5662 21.9561 64.5459 21.9764L64.4594 21.78ZM64.4594 21.78L64.5091 21.7303L64.4594 21.78ZM83.8076 1.56078L83.8412 1.59443C91.7109 8.89211 99.4049 16.7057 106.845 24.2613C107.222 24.6439 107.6 25.0283 107.98 25.4139L83.8076 1.56078ZM82.6553 5.45069L111.467 34.6238L111.459 34.6828C111.433 34.8225 111.365 35.0093 111.246 35.2226L111.246 35.2229C110.977 35.7065 110.537 36.2135 110.099 36.6186C109.881 36.8202 109.667 36.9935 109.48 37.1235C109.287 37.2569 109.139 37.3341 109.049 37.3593C109.001 37.3726 108.956 37.3781 108.905 37.3781C108.718 37.3781 108.497 37.2806 108.239 37.0969C107.985 36.9159 107.724 36.6732 107.456 36.4227L107.456 36.4224L107.455 36.4217C107.155 36.1419 106.835 35.8437 106.497 35.617C106.157 35.3892 105.78 35.2209 105.364 35.2209C104.652 35.2209 104.069 35.7003 103.569 36.5495L103.569 36.5502L103.516 36.6399L103.49 36.6855L103.489 36.7383L103.232 58.586L102.789 58.9457L60.4586 58.8377L60.099 58.394L59.9499 36.7393L59.9495 36.6859L59.9227 36.6399L59.8703 36.5501L59.87 36.5495C59.3703 35.7 58.7865 35.2209 58.0713 35.2209C57.6582 35.2209 57.2904 35.3818 56.9535 35.607C56.6225 35.8284 56.3052 36.1233 55.9936 36.4129L55.9836 36.4222L55.9836 36.4222C55.714 36.673 55.4519 36.9157 55.1972 37.0969C54.9387 37.2808 54.7189 37.3781 54.5346 37.3781C54.4835 37.3781 54.4382 37.3726 54.3905 37.3593C54.3004 37.3341 54.1514 37.2568 53.9588 37.1234C53.7711 36.9934 53.5565 36.8201 53.3379 36.6184C52.8993 36.2136 52.4587 35.707 52.1902 35.2239C52.0714 35.0042 52.0018 34.8226 51.9808 34.6843L51.9804 34.6822L51.9707 34.6222L54.3138 32.2646L54.3138 32.2645L55.0057 31.569C55.0089 31.5665 55.0128 31.5634 55.0172 31.5597C55.1175 31.4905 55.213 31.4103 55.3004 31.3228L59.7231 26.9001L59.7231 26.9001L59.7256 26.8975C59.8316 26.7876 59.9237 26.6726 60.0044 26.5456C60.0172 26.5298 60.0278 26.5135 60.0358 26.499C60.2402 26.1618 60.3425 25.7836 60.3425 25.4016C60.3425 25.0768 60.2687 24.7509 60.116 24.4528C60.0199 24.253 59.8873 24.0672 59.7231 23.9031C59.543 23.723 59.3365 23.5777 59.1111 23.4773C58.3278 23.1152 57.3705 23.2549 56.7261 23.9031L82.6553 5.45069Z" fill="white" stroke="white" stroke-width="0.4"/>
<path d="M121.481 66.5893L93.0867 82.6876C89.8378 73.9543 79.6017 78.1153 72.6629 77.0648C70.0982 76.676 65.6531 74.231 62.4865 73.5281C48.3248 70.3802 37.5503 78.1116 30.1068 89.3908C28.7385 88.3515 26.4991 85.0466 24.7906 84.8933C22.5288 84.6952 20.3417 88.43 18.5958 89.6525C16.8349 88.688 15.6199 85.7756 13.3618 87.4842L0.587148 100.169C-0.0633619 100.891 -0.164303 101.878 0.239462 102.756L8.71478 111.347C11.014 112.802 13.0852 110.559 11.7393 108.323C11.0177 107.119 5.25287 102.248 5.36503 101.605L14.7189 92.1947L51.6671 129.128L42.1824 138.624L17.392 114.14C15.1862 113.434 13.4815 116.065 15.1376 117.8L41.0608 143.645C42.4852 144.389 43.1619 143.854 44.2461 142.983C46.7733 140.961 54.2654 133.592 56.1459 131.094C58.6732 127.737 53.7757 125.846 52.1008 123.352C51.9625 122.567 57.0245 119.004 57.1142 117.494C57.2301 115.594 53.5663 113.325 52.6391 111.777H64.8119C66.2625 111.777 67.1149 108.315 65.2568 107.699L48.1641 107.433L33.4603 92.7518C39.1429 82.0259 49.2969 74.9375 61.8734 77.7751C64.8979 78.4593 69.1748 80.8819 71.5451 81.2557C75.7584 81.9249 83.0598 80.3248 86.847 81.6258C89.9575 82.6951 90.0808 87.8767 85.8114 88.2767C77.8258 89.0282 68.1579 87.3234 60.3294 88.258C56.8151 88.6768 57.3198 92.6733 60.6135 92.7443C68.6738 92.1611 77.8371 93.5369 85.7665 92.7069C88.8696 92.3817 91.1837 90.8526 92.6605 88.1272C102.164 83.11 111.69 76.0703 121.294 71.427C121.69 71.2364 122.214 70.8663 122.591 70.7691C126.222 69.8344 128.682 74.2422 125.829 76.8031C113.021 86.5383 100.654 96.924 87.6134 106.312C83.1346 108.529 77.8408 107.029 73.2012 107.571C70.6179 107.871 70.8235 111.232 72.9844 111.714C75.1528 112.2 83.3739 111.863 85.7142 111.411C86.7461 111.209 87.7442 110.861 88.7312 110.51C101.009 101.765 113.279 92.535 124.965 82.9381C126.872 81.3716 129.826 79.3154 130.854 77.0723C133.68 70.8999 127.713 64.7537 121.481 66.5819V66.5893ZM51.6746 117.101C52.0447 117.819 49.7044 119.374 49.2782 120.055L21.5792 92.8939L24.5139 89.9591L51.6746 117.101Z" fill="white"/>
<path d="M85.0188 27.4578C83.5272 27.3157 79.3587 27.2596 77.9604 27.484C77.5604 27.5475 76.4164 28.2466 76.4164 28.5308V34.7667H70.6515C69.6309 34.7667 68.9879 36.1051 68.8869 37.0023C68.7187 38.5052 68.6963 42.584 68.9019 44.0458C68.9729 44.5617 69.687 45.8253 70.1805 45.8253H76.4164V52.0613C76.4164 52.5211 77.2613 53.0296 77.7249 53.1043C79.2278 53.3436 83.6393 53.2763 85.2506 53.1305C85.9236 53.0707 87.2395 52.5996 87.2395 51.8257V45.8253H93.2399C93.7297 45.8253 94.4363 44.8085 94.5185 44.2813C94.7428 42.8345 94.7129 38.0342 94.5372 36.5238C94.4325 35.634 93.6362 34.7629 92.7689 34.7629H87.2395V28.7625C87.2395 27.9961 85.6656 27.5176 85.0151 27.4578H85.0188ZM91.008 38.5314V42.2961H84.7721C84.5366 42.2961 83.7141 43.1186 83.7141 43.3542V49.5901H79.9494V43.5897C79.9494 43.4252 78.996 42.2961 78.8913 42.2961H72.6554V38.5314H78.4203C78.8764 38.5314 79.9494 37.4547 79.9494 37.0023V31.2375H83.7141V37.2379C83.7141 37.5145 84.731 38.5314 85.0076 38.5314H91.008Z" fill="white"/>
</svg>
