<svg width="145" height="126" viewBox="0 0 145 126" fill="none" xmlns="http://www.w3.org/2000/svg">
<path d="M122.278 75.5171C121.43 74.744 120.794 73.1355 120.651 71.9759C120.252 68.6778 120.32 46.8883 121.199 44.8932C121.673 43.8147 123.438 42.9169 123.332 41.751C123.051 38.6463 116.411 28.1536 114.142 25.4104C88.7614 -5.34435 36.1485 0.852745 22.4638 38.5216C20.4064 44.1763 22.4201 42.1999 23.3428 45.1987C23.9912 47.306 23.879 68.815 23.4987 71.9634C23.1994 74.3949 21.3104 75.6916 21.4039 77.3999C21.7967 84.2828 34.2719 98.3665 39.7957 102.506C43.1186 104.994 56.8532 112.681 60.4007 112.076C60.8495 112.001 63.2685 107.98 67.9444 107.45C74.1602 106.746 84.4783 106.964 84.7962 115.437C85.1952 126.116 65.6563 126.677 61.074 119.832C60.3632 118.772 60.1824 116.883 59.8645 116.565C59.5777 116.278 53.5053 114.907 52.0714 114.358C37.8879 108.909 26.2606 98.5785 19.4276 84.9561C18.7667 83.6406 16.8465 77.4248 16.4973 77.2004C14.9761 76.2403 9.67057 77.8363 5.18174 73.6966C0.39988 69.2826 0.561977 57.5243 1.58443 51.427C2.22659 47.599 6.88999 42.5865 10.7678 42.0004C12.2579 41.776 15.7679 42.3246 16.4911 41.8633C17.0148 41.5328 20.0697 32.63 21.2917 30.4666C43.7795 -9.35312 102.01 -8.66109 123.793 31.6075C124.703 33.2908 127.777 41.3396 128.232 41.645C130.04 42.8608 135.215 41.0154 139.66 45.3795C145.813 51.4207 145.208 70.9596 136.786 75.648C133.556 77.4435 125.084 78.0857 122.272 75.5171H122.278ZM12.9562 46.2586C7.84387 47.1439 6.05457 50.5791 5.56204 55.4046C4.98223 61.1341 4.82637 71.103 12.1457 72.2439C15.1632 72.7115 18.9662 73.1978 19.3714 69.9122C19.6832 67.3935 19.7455 48.7711 19.2405 47.2249C18.6607 45.4481 14.4898 45.9967 12.9499 46.2648L12.9562 46.2586ZM125.507 72.2876C139.086 74.6006 139.834 64.7813 138.606 54.0205C137.54 44.6688 125.507 45.1613 125.507 47.1252V72.2876ZM79.1478 113.124C77.745 111.727 63.8172 110.599 64.2972 115.954C64.6775 120.169 73.836 119.72 76.8909 119.146C79.6154 118.635 81.1054 115.075 79.154 113.124H79.1478Z" fill="white" stroke="white" stroke-width="1.87035" stroke-miterlimit="10"/>
<path d="M114.03 103.186C113.83 103.498 112.047 103.884 111.455 103.772C105.975 102.569 94.2727 95.4176 89.4285 95.1994C87.4646 95.1121 82.9134 97.4501 80.457 97.9862C47.302 105.268 20.2443 71.0594 35.4315 40.4917C55.1574 0.790434 116.817 17.555 111.449 64.7501C110.944 69.1766 105.912 78.8775 106.018 80.4611C106.274 84.2641 112.527 95.2056 113.812 100.143C114.024 100.966 114.472 102.5 114.036 103.186H114.03ZM108.5 97.6496C107.371 93.2916 101.586 83.8776 101.617 79.875C101.636 77.8363 104.971 73.0669 105.856 70.3861C115.588 40.7785 87.1778 13.6896 58.0128 25.0364C19.839 39.887 32.8442 99.3703 76.9532 94.4762C80.6441 94.0647 87.0718 90.642 89.4783 90.7542C92.3524 90.8851 107.446 98.4725 108.506 97.6558L108.5 97.6496Z" fill="white" stroke="white" stroke-width="1.87035" stroke-miterlimit="10"/>
<path d="M74.6714 56.0468C77.4956 59.0207 73.2687 64.2265 69.4905 61.5394C65.17 58.4658 71.0554 52.2313 74.6714 56.0468Z" fill="white" stroke="white" stroke-width="1.87035" stroke-miterlimit="10"/>
<path d="M60.3321 56.0468C62.9069 58.7401 59.0415 64.3137 55.1512 61.5394C50.8432 58.4658 56.6911 52.2375 60.3321 56.0468Z" fill="white" stroke="white" stroke-width="1.87035" stroke-miterlimit="10"/>
<path d="M89.0108 56.0468C91.8412 59.0269 87.5893 64.2327 83.8299 61.5394C79.765 58.6279 85.3137 52.144 89.0108 56.0468Z" fill="white" stroke="white" stroke-width="1.87035" stroke-miterlimit="10"/>
</svg>
